<?xml version="1.0" encoding="UTF-8"?><svg xmlns="http://www.w3.org/2000/svg" viewBox="0 0 410 410" width="410" height="410" shape-rendering="geometricPrecision"><rect width="100%" height="100%" fill="#FFFFFF"/><path d="M44.5 40 H50 V50 H40 V44.5 A4.5 4.5 0 0 1 44.5 40 Z M50 40 H60 V50 H50 V40 Z M60 40 H70 V50 H60 V40 Z M70 40 H80 V50 H70 V40 Z M80 40 H90 V50 H80 V40 Z M90 40 H100 V50 H90 V40 Z M100 40 H105.5 A4.5 4.5 0 0 1 110 44.5 V50 H100 V40 Z M124.5 40 H125.5 A4.5 4.5 0 0 1 130 44.5 V45.5 A4.5 4.5 0 0 1 125.5 50 H124.5 A4.5 4.5 0 0 1 120 45.5 V44.5 A4.5 4.5 0 0 1 124.5 40 Z M174.5 40 H175.5 A4.5 4.5 0 0 1 180 44.5 V50 H170 V44.5 A4.5 4.5 0 0 1 174.5 40 Z M204.5 40 H205.5 A4.5 4.5 0 0 1 210 44.5 V50 H200 V44.5 A4.5 4.5 0 0 1 204.5 40 Z M224.5 40 H230 V50 H224.5 A4.5 4.5 0 0 1 220 45.5 V44.5 A4.5 4.5 0 0 1 224.5 40 Z M230 40 H235.5 A4.5 4.5 0 0 1 240 44.5 V50 H230 V40 Z M264.5 40 H270 V50 H264.5 A4.5 4.5 0 0 1 260 45.5 V44.5 A4.5 4.5 0 0 1 264.5 40 Z M270 40 H280 V50 H270 V40 Z M280 40 H285.5 A4.5 4.5 0 0 1 290 44.5 V45.5 A4.5 4.5 0 0 1 285.5 50 H280 V40 Z M304.5 40 H310 V50 H300 V44.5 A4.5 4.5 0 0 1 304.5 40 Z M310 40 H320 V50 H310 V40 Z M320 40 H330 V50 H320 V40 Z M330 40 H340 V50 H330 V40 Z M340 40 H350 V50 H340 V40 Z M350 40 H360 V50 H350 V40 Z M360 40 H365.5 A4.5 4.5 0 0 1 370 44.5 V50 H360 V40 Z M40 50 H50 V60 H40 V50 Z M100 50 H110 V60 H100 V50 Z M134.5 50 H140 V60 H130 V54.5 A4.5 4.5 0 0 1 134.5 50 Z M140 50 H145.5 A4.5 4.5 0 0 1 150 54.5 V55.5 A4.5 4.5 0 0 1 145.5 60 H140 V50 Z M164.5 50 H170 V60 H160 V54.5 A4.5 4.5 0 0 1 164.5 50 Z M170 50 H180 V55.5 A4.5 4.5 0 0 1 175.5 60 H170 V50 Z M200 50 H210 V55.5 A4.5 4.5 0 0 1 205.5 60 H204.5 A4.5 4.5 0 0 1 200 55.5 V50 Z M230 50 H240 V55.5 A4.5 4.5 0 0 1 235.5 60 H234.5 A4.5 4.5 0 0 1 230 55.5 V50 Z M270 50 H280 V60 H270 V50 Z M300 50 H310 V60 H300 V50 Z M360 50 H370 V60 H360 V50 Z M40 60 H50 V70 H40 V60 Z M64.5 60 H70 V70 H60 V64.5 A4.5 4.5 0 0 1 64.5 60 Z M70 60 H80 V70 H70 V60 Z M80 60 H85.5 A4.5 4.5 0 0 1 90 64.5 V70 H80 V60 Z M100 60 H110 V70 H100 V60 Z M130 60 H140 V65.5 A4.5 4.5 0 0 1 135.5 70 H134.5 A4.5 4.5 0 0 1 130 65.5 V60 Z M154.5 60 H160 V70 H150 V64.5 A4.5 4.5 0 0 1 154.5 60 Z M160 60 H170 V65.5 A4.5 4.5 0 0 1 165.5 70 H160 V60 Z M194.5 60 H195.5 A4.5 4.5 0 0 1 200 64.5 V65.5 A4.5 4.5 0 0 1 195.5 70 H194.5 A4.5 4.5 0 0 1 190 65.5 V64.5 A4.5 4.5 0 0 1 194.5 60 Z M214.5 60 H220 V70 H214.5 A4.5 4.5 0 0 1 210 65.5 V64.5 A4.5 4.5 0 0 1 214.5 60 Z M220 60 H225.5 A4.5 4.5 0 0 1 230 64.5 V70 H220 V60 Z M244.5 60 H245.5 A4.5 4.5 0 0 1 250 64.5 V65.5 A4.5 4.5 0 0 1 245.5 70 H244.5 A4.5 4.5 0 0 1 240 65.5 V64.5 A4.5 4.5 0 0 1 244.5 60 Z M270 60 H280 V70 H274.5 A4.5 4.5 0 0 1 270 65.5 V60 Z M280 60 H285.5 A4.5 4.5 0 0 1 290 64.5 V65.5 A4.5 4.5 0 0 1 285.5 70 H280 V60 Z M300 60 H310 V70 H300 V60 Z M324.5 60 H330 V70 H320 V64.5 A4.5 4.5 0 0 1 324.5 60 Z M330 60 H340 V70 H330 V60 Z M340 60 H345.5 A4.5 4.5 0 0 1 350 64.5 V70 H340 V60 Z M360 60 H370 V70 H360 V60 Z M40 70 H50 V80 H40 V70 Z M60 70 H70 V80 H60 V70 Z M70 70 H80 V80 H70 V70 Z M80 70 H90 V80 H80 V70 Z M100 70 H110 V80 H100 V70 Z M124.5 70 H125.5 A4.5 4.5 0 0 1 130 74.5 V75.5 A4.5 4.5 0 0 1 125.5 80 H124.5 A4.5 4.5 0 0 1 120 75.5 V74.5 A4.5 4.5 0 0 1 124.5 70 Z M150 70 H160 V80 H150 V70 Z M174.5 70 H175.5 A4.5 4.5 0 0 1 180 74.5 V75.5 A4.5 4.5 0 0 1 175.5 80 H174.5 A4.5 4.5 0 0 1 170 75.5 V74.5 A4.5 4.5 0 0 1 174.5 70 Z M220 70 H230 V80 H224.5 A4.5 4.5 0 0 1 220 75.5 V70 Z M230 70 H235.5 A4.5 4.5 0 0 1 240 74.5 V75.5 A4.5 4.5 0 0 1 235.5 80 H230 V70 Z M264.5 70 H265.5 A4.5 4.5 0 0 1 270 74.5 V75.5 A4.5 4.5 0 0 1 265.5 80 H264.5 A4.5 4.5 0 0 1 260 75.5 V74.5 A4.5 4.5 0 0 1 264.5 70 Z M300 70 H310 V80 H300 V70 Z M320 70 H330 V80 H320 V70 Z M330 70 H340 V80 H330 V70 Z M340 70 H350 V80 H340 V70 Z M360 70 H370 V80 H360 V70 Z M40 80 H50 V90 H40 V80 Z M60 80 H70 V90 H64.5 A4.5 4.5 0 0 1 60 85.5 V80 Z M70 80 H80 V90 H70 V80 Z M80 80 H90 V85.5 A4.5 4.5 0 0 1 85.5 90 H80 V80 Z M100 80 H110 V90 H100 V80 Z M150 80 H160 V85.5 A4.5 4.5 0 0 1 155.5 90 H154.5 A4.5 4.5 0 0 1 150 85.5 V80 Z M184.5 80 H185.5 A4.5 4.5 0 0 1 190 84.5 V85.5 A4.5 4.5 0 0 1 185.5 90 H184.5 A4.5 4.5 0 0 1 180 85.5 V84.5 A4.5 4.5 0 0 1 184.5 80 Z M204.5 80 H210 V90 H204.5 A4.5 4.5 0 0 1 200 85.5 V84.5 A4.5 4.5 0 0 1 204.5 80 Z M210 80 H215.5 A4.5 4.5 0 0 1 220 84.5 V90 H210 V80 Z M244.5 80 H250 V90 H240 V84.5 A4.5 4.5 0 0 1 244.5 80 Z M250 80 H255.5 A4.5 4.5 0 0 1 260 84.5 V90 H250 V80 Z M274.5 80 H275.5 A4.5 4.5 0 0 1 280 84.5 V90 H270 V84.5 A4.5 4.5 0 0 1 274.5 80 Z M300 80 H310 V90 H300 V80 Z M320 80 H330 V90 H324.5 A4.5 4.5 0 0 1 320 85.5 V80 Z M330 80 H340 V90 H330 V80 Z M340 80 H350 V85.5 A4.5 4.5 0 0 1 345.5 90 H340 V80 Z M360 80 H370 V90 H360 V80 Z M40 90 H50 V100 H40 V90 Z M100 90 H110 V100 H100 V90 Z M134.5 90 H140 V100 H134.5 A4.5 4.5 0 0 1 130 95.5 V94.5 A4.5 4.5 0 0 1 134.5 90 Z M140 90 H145.5 A4.5 4.5 0 0 1 150 94.5 V100 H140 V90 Z M164.5 90 H165.5 A4.5 4.5 0 0 1 170 94.5 V100 H160 V94.5 A4.5 4.5 0 0 1 164.5 90 Z M210 90 H220 V95.5 A4.5 4.5 0 0 1 215.5 100 H214.5 A4.5 4.5 0 0 1 210 95.5 V90 Z M240 90 H250 V100 H240 V90 Z M250 90 H260 V95.5 A4.5 4.5 0 0 1 255.5 100 H250 V90 Z M270 90 H280 V100 H274.5 A4.5 4.5 0 0 1 270 95.5 V90 Z M280 90 H285.5 A4.5 4.5 0 0 1 290 94.5 V100 H280 V90 Z M300 90 H310 V100 H300 V90 Z M360 90 H370 V100 H360 V90 Z M40 100 H50 V110 H44.5 A4.5 4.5 0 0 1 40 105.5 V100 Z M50 100 H60 V110 H50 V100 Z M60 100 H70 V110 H60 V100 Z M70 100 H80 V110 H70 V100 Z M80 100 H90 V110 H80 V100 Z M90 100 H100 V110 H90 V100 Z M100 100 H110 V105.5 A4.5 4.5 0 0 1 105.5 110 H100 V100 Z M124.5 100 H125.5 A4.5 4.5 0 0 1 130 104.5 V105.5 A4.5 4.5 0 0 1 125.5 110 H124.5 A4.5 4.5 0 0 1 120 105.5 V104.5 A4.5 4.5 0 0 1 124.5 100 Z M140 100 H150 V105.5 A4.5 4.5 0 0 1 145.5 110 H144.5 A4.5 4.5 0 0 1 140 105.5 V100 Z M160 100 H170 V110 H160 V100 Z M184.5 100 H185.5 A4.5 4.5 0 0 1 190 104.5 V105.5 A4.5 4.5 0 0 1 185.5 110 H184.5 A4.5 4.5 0 0 1 180 105.5 V104.5 A4.5 4.5 0 0 1 184.5 100 Z M204.5 100 H205.5 A4.5 4.5 0 0 1 210 104.5 V105.5 A4.5 4.5 0 0 1 205.5 110 H204.5 A4.5 4.5 0 0 1 200 105.5 V104.5 A4.5 4.5 0 0 1 204.5 100 Z M224.5 100 H225.5 A4.5 4.5 0 0 1 230 104.5 V105.5 A4.5 4.5 0 0 1 225.5 110 H224.5 A4.5 4.5 0 0 1 220 105.5 V104.5 A4.5 4.5 0 0 1 224.5 100 Z M240 100 H250 V105.5 A4.5 4.5 0 0 1 245.5 110 H244.5 A4.5 4.5 0 0 1 240 105.5 V100 Z M264.5 100 H265.5 A4.5 4.5 0 0 1 270 104.5 V110 H260 V104.5 A4.5 4.5 0 0 1 264.5 100 Z M280 100 H290 V105.5 A4.5 4.5 0 0 1 285.5 110 H284.5 A4.5 4.5 0 0 1 280 105.5 V100 Z M300 100 H310 V110 H304.5 A4.5 4.5 0 0 1 300 105.5 V100 Z M310 100 H320 V110 H310 V100 Z M320 100 H330 V110 H320 V100 Z M330 100 H340 V110 H330 V100 Z M340 100 H350 V110 H340 V100 Z M350 100 H360 V110 H350 V100 Z M360 100 H370 V105.5 A4.5 4.5 0 0 1 365.5 110 H360 V100 Z M160 110 H170 V120 H160 V110 Z M194.5 110 H195.5 A4.5 4.5 0 0 1 200 114.5 V120 H190 V114.5 A4.5 4.5 0 0 1 194.5 110 Z M214.5 110 H215.5 A4.5 4.5 0 0 1 220 114.5 V115.5 A4.5 4.5 0 0 1 215.5 120 H214.5 A4.5 4.5 0 0 1 210 115.5 V114.5 A4.5 4.5 0 0 1 214.5 110 Z M254.5 110 H260 V120 H250 V114.5 A4.5 4.5 0 0 1 254.5 110 Z M260 110 H270 V120 H260 V110 Z M270 110 H275.5 A4.5 4.5 0 0 1 280 114.5 V120 H270 V110 Z M64.5 120 H65.5 A4.5 4.5 0 0 1 70 124.5 V130 H60 V124.5 A4.5 4.5 0 0 1 64.5 120 Z M84.5 120 H90 V130 H84.5 A4.5 4.5 0 0 1 80 125.5 V124.5 A4.5 4.5 0 0 1 84.5 120 Z M90 120 H100 V130 H90 V120 Z M100 120 H105.5 A4.5 4.5 0 0 1 110 124.5 V125.5 A4.5 4.5 0 0 1 105.5 130 H100 V120 Z M124.5 120 H125.5 A4.5 4.5 0 0 1 130 124.5 V130 H120 V124.5 A4.5 4.5 0 0 1 124.5 120 Z M154.5 120 H160 V130 H150 V124.5 A4.5 4.5 0 0 1 154.5 120 Z M160 120 H170 V130 H160 V120 Z M170 120 H175.5 A4.5 4.5 0 0 1 180 124.5 V130 H170 V120 Z M190 120 H200 V130 H194.5 A4.5 4.5 0 0 1 190 125.5 V120 Z M200 120 H205.5 A4.5 4.5 0 0 1 210 124.5 V130 H200 V120 Z M224.5 120 H230 V130 H224.5 A4.5 4.5 0 0 1 220 125.5 V124.5 A4.5 4.5 0 0 1 224.5 120 Z M230 120 H240 V130 H230 V120 Z M240 120 H250 V130 H240 V120 Z M250 120 H260 V130 H250 V120 Z M260 120 H270 V130 H260 V120 Z M270 120 H280 V130 H270 V120 Z M280 120 H290 V130 H280 V120 Z M290 120 H295.5 A4.5 4.5 0 0 1 300 124.5 V125.5 A4.5 4.5 0 0 1 295.5 130 H290 V120 Z M334.5 120 H335.5 A4.5 4.5 0 0 1 340 124.5 V125.5 A4.5 4.5 0 0 1 335.5 130 H334.5 A4.5 4.5 0 0 1 330 125.5 V124.5 A4.5 4.5 0 0 1 334.5 120 Z M364.5 120 H365.5 A4.5 4.5 0 0 1 370 124.5 V130 H360 V124.5 A4.5 4.5 0 0 1 364.5 120 Z M60 130 H70 V140 H60 V130 Z M70 130 H75.5 A4.5 4.5 0 0 1 80 134.5 V135.5 A4.5 4.5 0 0 1 75.5 140 H70 V130 Z M90 130 H100 V135.5 A4.5 4.5 0 0 1 95.5 140 H94.5 A4.5 4.5 0 0 1 90 135.5 V130 Z M120 130 H130 V140 H120 V130 Z M130 130 H135.5 A4.5 4.5 0 0 1 140 134.5 V135.5 A4.5 4.5 0 0 1 135.5 140 H130 V130 Z M150 130 H160 V140 H154.5 A4.5 4.5 0 0 1 150 135.5 V130 Z M160 130 H170 V140 H160 V130 Z M170 130 H180 V140 H170 V130 Z M180 130 H185.5 A4.5 4.5 0 0 1 190 134.5 V135.5 A4.5 4.5 0 0 1 185.5 140 H180 V130 Z M200 130 H210 V135.5 A4.5 4.5 0 0 1 205.5 140 H204.5 A4.5 4.5 0 0 1 200 135.5 V130 Z M260 130 H270 V135.5 A4.5 4.5 0 0 1 265.5 140 H264.5 A4.5 4.5 0 0 1 260 135.5 V130 Z M280 130 H290 V140 H280 V130 Z M304.5 130 H305.5 A4.5 4.5 0 0 1 310 134.5 V140 H300 V134.5 A4.5 4.5 0 0 1 304.5 130 Z M344.5 130 H350 V140 H344.5 A4.5 4.5 0 0 1 340 135.5 V134.5 A4.5 4.5 0 0 1 344.5 130 Z M350 130 H360 V140 H350 V130 Z M360 130 H370 V140 H360 V130 Z M54.5 140 H60 V150 H54.5 A4.5 4.5 0 0 1 50 145.5 V144.5 A4.5 4.5 0 0 1 54.5 140 Z M60 140 H70 V150 H60 V140 Z M84.5 140 H85.5 A4.5 4.5 0 0 1 90 144.5 V145.5 A4.5 4.5 0 0 1 85.5 150 H84.5 A4.5 4.5 0 0 1 80 145.5 V144.5 A4.5 4.5 0 0 1 84.5 140 Z M104.5 140 H110 V150 H104.5 A4.5 4.5 0 0 1 100 145.5 V144.5 A4.5 4.5 0 0 1 104.5 140 Z M110 140 H120 V150 H110 V140 Z M120 140 H130 V150 H120 V140 Z M144.5 140 H145.5 A4.5 4.5 0 0 1 150 144.5 V150 H140 V144.5 A4.5 4.5 0 0 1 144.5 140 Z M160 140 H170 V150 H160 V140 Z M170 140 H180 V145.5 A4.5 4.5 0 0 1 175.5 150 H170 V140 Z M214.5 140 H215.5 A4.5 4.5 0 0 1 220 144.5 V145.5 A4.5 4.5 0 0 1 215.5 150 H214.5 A4.5 4.5 0 0 1 210 145.5 V144.5 A4.5 4.5 0 0 1 214.5 140 Z M234.5 140 H240 V150 H234.5 A4.5 4.5 0 0 1 230 145.5 V144.5 A4.5 4.5 0 0 1 234.5 140 Z M240 140 H250 V150 H240 V140 Z M250 140 H255.5 A4.5 4.5 0 0 1 260 144.5 V150 H250 V140 Z M280 140 H290 V145.5 A4.5 4.5 0 0 1 285.5 150 H284.5 A4.5 4.5 0 0 1 280 145.5 V140 Z M300 140 H310 V150 H300 V140 Z M324.5 140 H325.5 A4.5 4.5 0 0 1 330 144.5 V145.5 A4.5 4.5 0 0 1 325.5 150 H324.5 A4.5 4.5 0 0 1 320 145.5 V144.5 A4.5 4.5 0 0 1 324.5 140 Z M350 140 H360 V150 H354.5 A4.5 4.5 0 0 1 350 145.5 V140 Z M360 140 H370 V145.5 A4.5 4.5 0 0 1 365.5 150 H360 V140 Z M44.5 150 H45.5 A4.5 4.5 0 0 1 50 154.5 V160 H40 V154.5 A4.5 4.5 0 0 1 44.5 150 Z M60 150 H70 V155.5 A4.5 4.5 0 0 1 65.5 160 H64.5 A4.5 4.5 0 0 1 60 155.5 V150 Z M94.5 150 H95.5 A4.5 4.5 0 0 1 100 154.5 V155.5 A4.5 4.5 0 0 1 95.5 160 H94.5 A4.5 4.5 0 0 1 90 155.5 V154.5 A4.5 4.5 0 0 1 94.5 150 Z M120 150 H130 V160 H120 V150 Z M130 150 H140 V160 H130 V150 Z M140 150 H150 V155.5 A4.5 4.5 0 0 1 145.5 160 H140 V150 Z M160 150 H170 V155.5 A4.5 4.5 0 0 1 165.5 160 H164.5 A4.5 4.5 0 0 1 160 155.5 V150 Z M204.5 150 H205.5 A4.5 4.5 0 0 1 210 154.5 V155.5 A4.5 4.5 0 0 1 205.5 160 H204.5 A4.5 4.5 0 0 1 200 155.5 V154.5 A4.5 4.5 0 0 1 204.5 150 Z M224.5 150 H225.5 A4.5 4.5 0 0 1 230 154.5 V155.5 A4.5 4.5 0 0 1 225.5 160 H224.5 A4.5 4.5 0 0 1 220 155.5 V154.5 A4.5 4.5 0 0 1 224.5 150 Z M250 150 H260 V160 H250 V150 Z M260 150 H270 V160 H260 V150 Z M270 150 H275.5 A4.5 4.5 0 0 1 280 154.5 V160 H270 V150 Z M300 150 H310 V160 H300 V150 Z M40 160 H50 V170 H40 V160 Z M84.5 160 H85.5 A4.5 4.5 0 0 1 90 164.5 V165.5 A4.5 4.5 0 0 1 85.5 170 H84.5 A4.5 4.5 0 0 1 80 165.5 V164.5 A4.5 4.5 0 0 1 84.5 160 Z M104.5 160 H105.5 A4.5 4.5 0 0 1 110 164.5 V165.5 A4.5 4.5 0 0 1 105.5 170 H104.5 A4.5 4.5 0 0 1 100 165.5 V164.5 A4.5 4.5 0 0 1 104.5 160 Z M120 160 H130 V165.5 A4.5 4.5 0 0 1 125.5 170 H124.5 A4.5 4.5 0 0 1 120 165.5 V160 Z M154.5 160 H155.5 A4.5 4.5 0 0 1 160 164.5 V165.5 A4.5 4.5 0 0 1 155.5 170 H154.5 A4.5 4.5 0 0 1 150 165.5 V164.5 A4.5 4.5 0 0 1 154.5 160 Z M174.5 160 H175.5 A4.5 4.5 0 0 1 180 164.5 V170 H170 V164.5 A4.5 4.5 0 0 1 174.5 160 Z M194.5 160 H195.5 A4.5 4.5 0 0 1 200 164.5 V170 H190 V164.5 A4.5 4.5 0 0 1 194.5 160 Z M234.5 160 H235.5 A4.5 4.5 0 0 1 240 164.5 V165.5 A4.5 4.5 0 0 1 235.5 170 H234.5 A4.5 4.5 0 0 1 230 165.5 V164.5 A4.5 4.5 0 0 1 234.5 160 Z M250 160 H260 V165.5 A4.5 4.5 0 0 1 255.5 170 H254.5 A4.5 4.5 0 0 1 250 165.5 V160 Z M270 160 H280 V165.5 A4.5 4.5 0 0 1 275.5 170 H274.5 A4.5 4.5 0 0 1 270 165.5 V160 Z M294.5 160 H300 V170 H294.5 A4.5 4.5 0 0 1 290 165.5 V164.5 A4.5 4.5 0 0 1 294.5 160 Z M300 160 H310 V170 H300 V160 Z M354.5 160 H360 V170 H350 V164.5 A4.5 4.5 0 0 1 354.5 160 Z M360 160 H365.5 A4.5 4.5 0 0 1 370 164.5 V170 H360 V160 Z M40 170 H50 V180 H40 V170 Z M64.5 170 H70 V180 H64.5 A4.5 4.5 0 0 1 60 175.5 V174.5 A4.5 4.5 0 0 1 64.5 170 Z M70 170 H75.5 A4.5 4.5 0 0 1 80 174.5 V180 H70 V170 Z M114.5 170 H115.5 A4.5 4.5 0 0 1 120 174.5 V180 H110 V174.5 A4.5 4.5 0 0 1 114.5 170 Z M164.5 170 H170 V180 H164.5 A4.5 4.5 0 0 1 160 175.5 V174.5 A4.5 4.5 0 0 1 164.5 170 Z M170 170 H180 V175.5 A4.5 4.5 0 0 1 175.5 180 H170 V170 Z M190 170 H200 V180 H194.5 A4.5 4.5 0 0 1 190 175.5 V170 Z M200 170 H210 V180 H200 V170 Z M210 170 H215.5 A4.5 4.5 0 0 1 220 174.5 V175.5 A4.5 4.5 0 0 1 215.5 180 H210 V170 Z M284.5 170 H285.5 A4.5 4.5 0 0 1 290 174.5 V175.5 A4.5 4.5 0 0 1 285.5 180 H284.5 A4.5 4.5 0 0 1 280 175.5 V174.5 A4.5 4.5 0 0 1 284.5 170 Z M300 170 H310 V175.5 A4.5 4.5 0 0 1 305.5 180 H304.5 A4.5 4.5 0 0 1 300 175.5 V170 Z M334.5 170 H340 V180 H330 V174.5 A4.5 4.5 0 0 1 334.5 170 Z M340 170 H350 V180 H340 V170 Z M350 170 H360 V180 H350 V170 Z M360 170 H370 V180 H360 V170 Z M40 180 H50 V190 H40 V180 Z M50 180 H55.5 A4.5 4.5 0 0 1 60 184.5 V185.5 A4.5 4.5 0 0 1 55.5 190 H50 V180 Z M70 180 H80 V190 H70 V180 Z M94.5 180 H100 V190 H90 V184.5 A4.5 4.5 0 0 1 94.5 180 Z M100 180 H110 V190 H100 V180 Z M110 180 H120 V190 H110 V180 Z M134.5 180 H135.5 A4.5 4.5 0 0 1 140 184.5 V185.5 A4.5 4.5 0 0 1 135.5 190 H134.5 A4.5 4.5 0 0 1 130 185.5 V184.5 A4.5 4.5 0 0 1 134.5 180 Z M154.5 180 H155.5 A4.5 4.5 0 0 1 160 184.5 V185.5 A4.5 4.5 0 0 1 155.5 190 H154.5 A4.5 4.5 0 0 1 150 185.5 V184.5 A4.5 4.5 0 0 1 154.5 180 Z M184.5 180 H185.5 A4.5 4.5 0 0 1 190 184.5 V185.5 A4.5 4.5 0 0 1 185.5 190 H184.5 A4.5 4.5 0 0 1 180 185.5 V184.5 A4.5 4.5 0 0 1 184.5 180 Z M200 180 H210 V190 H200 V180 Z M244.5 180 H250 V190 H244.5 A4.5 4.5 0 0 1 240 185.5 V184.5 A4.5 4.5 0 0 1 244.5 180 Z M250 180 H255.5 A4.5 4.5 0 0 1 260 184.5 V190 H250 V180 Z M294.5 180 H295.5 A4.5 4.5 0 0 1 300 184.5 V185.5 A4.5 4.5 0 0 1 295.5 190 H294.5 A4.5 4.5 0 0 1 290 185.5 V184.5 A4.5 4.5 0 0 1 294.5 180 Z M314.5 180 H320 V190 H314.5 A4.5 4.5 0 0 1 310 185.5 V184.5 A4.5 4.5 0 0 1 314.5 180 Z M320 180 H330 V190 H320 V180 Z M330 180 H340 V185.5 A4.5 4.5 0 0 1 335.5 190 H330 V180 Z M350 180 H360 V190 H350 V180 Z M360 180 H370 V190 H360 V180 Z M40 190 H50 V195.5 A4.5 4.5 0 0 1 45.5 200 H44.5 A4.5 4.5 0 0 1 40 195.5 V190 Z M64.5 190 H70 V200 H64.5 A4.5 4.5 0 0 1 60 195.5 V194.5 A4.5 4.5 0 0 1 64.5 190 Z M70 190 H80 V200 H70 V190 Z M90 190 H100 V195.5 A4.5 4.5 0 0 1 95.5 200 H94.5 A4.5 4.5 0 0 1 90 195.5 V190 Z M110 190 H120 V195.5 A4.5 4.5 0 0 1 115.5 200 H114.5 A4.5 4.5 0 0 1 110 195.5 V190 Z M144.5 190 H145.5 A4.5 4.5 0 0 1 150 194.5 V195.5 A4.5 4.5 0 0 1 145.5 200 H144.5 A4.5 4.5 0 0 1 140 195.5 V194.5 A4.5 4.5 0 0 1 144.5 190 Z M200 190 H210 V200 H204.5 A4.5 4.5 0 0 1 200 195.5 V190 Z M210 190 H215.5 A4.5 4.5 0 0 1 220 194.5 V200 H210 V190 Z M250 190 H260 V200 H250 V190 Z M260 190 H265.5 A4.5 4.5 0 0 1 270 194.5 V200 H260 V190 Z M284.5 190 H285.5 A4.5 4.5 0 0 1 290 194.5 V195.5 A4.5 4.5 0 0 1 285.5 200 H284.5 A4.5 4.5 0 0 1 280 195.5 V194.5 A4.5 4.5 0 0 1 284.5 190 Z M320 190 H330 V195.5 A4.5 4.5 0 0 1 325.5 200 H324.5 A4.5 4.5 0 0 1 320 195.5 V190 Z M350 190 H360 V200 H354.5 A4.5 4.5 0 0 1 350 195.5 V190 Z M360 190 H370 V200 H360 V190 Z M54.5 200 H55.5 A4.5 4.5 0 0 1 60 204.5 V205.5 A4.5 4.5 0 0 1 55.5 210 H54.5 A4.5 4.5 0 0 1 50 205.5 V204.5 A4.5 4.5 0 0 1 54.5 200 Z M70 200 H80 V210 H74.5 A4.5 4.5 0 0 1 70 205.5 V200 Z M80 200 H85.5 A4.5 4.5 0 0 1 90 204.5 V210 H80 V200 Z M104.5 200 H105.5 A4.5 4.5 0 0 1 110 204.5 V205.5 A4.5 4.5 0 0 1 105.5 210 H104.5 A4.5 4.5 0 0 1 100 205.5 V204.5 A4.5 4.5 0 0 1 104.5 200 Z M164.5 200 H170 V210 H160 V204.5 A4.5 4.5 0 0 1 164.5 200 Z M170 200 H180 V210 H170 V200 Z M180 200 H185.5 A4.5 4.5 0 0 1 190 204.5 V205.5 A4.5 4.5 0 0 1 185.5 210 H180 V200 Z M210 200 H220 V210 H210 V200 Z M220 200 H230 V210 H220 V200 Z M230 200 H240 V210 H230 V200 Z M240 200 H250 V210 H240 V200 Z M250 200 H260 V210 H250 V200 Z M260 200 H270 V210 H260 V200 Z M270 200 H275.5 A4.5 4.5 0 0 1 280 204.5 V205.5 A4.5 4.5 0 0 1 275.5 210 H270 V200 Z M304.5 200 H305.5 A4.5 4.5 0 0 1 310 204.5 V210 H300 V204.5 A4.5 4.5 0 0 1 304.5 200 Z M334.5 200 H335.5 A4.5 4.5 0 0 1 340 204.5 V210 H330 V204.5 A4.5 4.5 0 0 1 334.5 200 Z M360 200 H370 V210 H360 V200 Z M80 210 H90 V220 H84.5 A4.5 4.5 0 0 1 80 215.5 V210 Z M90 210 H95.5 A4.5 4.5 0 0 1 100 214.5 V220 H90 V210 Z M124.5 210 H125.5 A4.5 4.5 0 0 1 130 214.5 V220 H120 V214.5 A4.5 4.5 0 0 1 124.5 210 Z M160 210 H170 V215.5 A4.5 4.5 0 0 1 165.5 220 H164.5 A4.5 4.5 0 0 1 160 215.5 V210 Z M210 210 H220 V220 H210 V210 Z M250 210 H260 V215.5 A4.5 4.5 0 0 1 255.5 220 H254.5 A4.5 4.5 0 0 1 250 215.5 V210 Z M294.5 210 H300 V220 H290 V214.5 A4.5 4.5 0 0 1 294.5 210 Z M300 210 H310 V215.5 A4.5 4.5 0 0 1 305.5 220 H300 V210 Z M330 210 H340 V220 H334.5 A4.5 4.5 0 0 1 330 215.5 V210 Z M340 210 H350 V220 H340 V210 Z M350 210 H360 V220 H350 V210 Z M360 210 H370 V220 H360 V210 Z M44.5 220 H50 V230 H44.5 A4.5 4.5 0 0 1 40 225.5 V224.5 A4.5 4.5 0 0 1 44.5 220 Z M50 220 H55.5 A4.5 4.5 0 0 1 60 224.5 V230 H50 V220 Z M90 220 H100 V230 H94.5 A4.5 4.5 0 0 1 90 225.5 V220 Z M100 220 H105.5 A4.5 4.5 0 0 1 110 224.5 V225.5 A4.5 4.5 0 0 1 105.5 230 H100 V220 Z M120 220 H130 V225.5 A4.5 4.5 0 0 1 125.5 230 H124.5 A4.5 4.5 0 0 1 120 225.5 V220 Z M154.5 220 H155.5 A4.5 4.5 0 0 1 160 224.5 V230 H150 V224.5 A4.5 4.5 0 0 1 154.5 220 Z M194.5 220 H195.5 A4.5 4.5 0 0 1 200 224.5 V230 H190 V224.5 A4.5 4.5 0 0 1 194.5 220 Z M210 220 H220 V230 H210 V220 Z M220 220 H230 V230 H220 V220 Z M230 220 H235.5 A4.5 4.5 0 0 1 240 224.5 V230 H230 V220 Z M264.5 220 H265.5 A4.5 4.5 0 0 1 270 224.5 V225.5 A4.5 4.5 0 0 1 265.5 230 H264.5 A4.5 4.5 0 0 1 260 225.5 V224.5 A4.5 4.5 0 0 1 264.5 220 Z M290 220 H300 V225.5 A4.5 4.5 0 0 1 295.5 230 H294.5 A4.5 4.5 0 0 1 290 225.5 V220 Z M314.5 220 H315.5 A4.5 4.5 0 0 1 320 224.5 V225.5 A4.5 4.5 0 0 1 315.5 230 H314.5 A4.5 4.5 0 0 1 310 225.5 V224.5 A4.5 4.5 0 0 1 314.5 220 Z M340 220 H350 V230 H344.5 A4.5 4.5 0 0 1 340 225.5 V220 Z M350 220 H360 V230 H350 V220 Z M360 220 H370 V230 H360 V220 Z M50 230 H60 V240 H50 V230 Z M60 230 H65.5 A4.5 4.5 0 0 1 70 234.5 V235.5 A4.5 4.5 0 0 1 65.5 240 H60 V230 Z M114.5 230 H115.5 A4.5 4.5 0 0 1 120 234.5 V235.5 A4.5 4.5 0 0 1 115.5 240 H114.5 A4.5 4.5 0 0 1 110 235.5 V234.5 A4.5 4.5 0 0 1 114.5 230 Z M150 230 H160 V235.5 A4.5 4.5 0 0 1 155.5 240 H154.5 A4.5 4.5 0 0 1 150 235.5 V230 Z M174.5 230 H180 V240 H170 V234.5 A4.5 4.5 0 0 1 174.5 230 Z M180 230 H190 V240 H180 V230 Z M190 230 H200 V240 H190 V230 Z M210 230 H220 V235.5 A4.5 4.5 0 0 1 215.5 240 H214.5 A4.5 4.5 0 0 1 210 235.5 V230 Z M230 230 H240 V240 H230 V230 Z M254.5 230 H255.5 A4.5 4.5 0 0 1 260 234.5 V240 H250 V234.5 A4.5 4.5 0 0 1 254.5 230 Z M304.5 230 H305.5 A4.5 4.5 0 0 1 310 234.5 V240 H300 V234.5 A4.5 4.5 0 0 1 304.5 230 Z M324.5 230 H325.5 A4.5 4.5 0 0 1 330 234.5 V235.5 A4.5 4.5 0 0 1 325.5 240 H324.5 A4.5 4.5 0 0 1 320 235.5 V234.5 A4.5 4.5 0 0 1 324.5 230 Z M360 230 H370 V240 H360 V230 Z M44.5 240 H50 V250 H44.5 A4.5 4.5 0 0 1 40 245.5 V244.5 A4.5 4.5 0 0 1 44.5 240 Z M50 240 H60 V245.5 A4.5 4.5 0 0 1 55.5 250 H50 V240 Z M94.5 240 H100 V250 H94.5 A4.5 4.5 0 0 1 90 245.5 V244.5 A4.5 4.5 0 0 1 94.5 240 Z M100 240 H105.5 A4.5 4.5 0 0 1 110 244.5 V245.5 A4.5 4.5 0 0 1 105.5 250 H100 V240 Z M134.5 240 H140 V250 H134.5 A4.5 4.5 0 0 1 130 245.5 V244.5 A4.5 4.5 0 0 1 134.5 240 Z M140 240 H145.5 A4.5 4.5 0 0 1 150 244.5 V245.5 A4.5 4.5 0 0 1 145.5 250 H140 V240 Z M164.5 240 H170 V250 H164.5 A4.5 4.5 0 0 1 160 245.5 V244.5 A4.5 4.5 0 0 1 164.5 240 Z M170 240 H180 V250 H170 V240 Z M180 240 H190 V250 H180 V240 Z M190 240 H200 V250 H190 V240 Z M200 240 H205.5 A4.5 4.5 0 0 1 210 244.5 V250 H200 V240 Z M230 240 H240 V250 H230 V240 Z M240 240 H250 V250 H240 V240 Z M250 240 H260 V245.5 A4.5 4.5 0 0 1 255.5 250 H250 V240 Z M284.5 240 H290 V250 H280 V244.5 A4.5 4.5 0 0 1 284.5 240 Z M290 240 H300 V250 H290 V240 Z M300 240 H310 V250 H300 V240 Z M334.5 240 H335.5 A4.5 4.5 0 0 1 340 244.5 V250 H330 V244.5 A4.5 4.5 0 0 1 334.5 240 Z M360 240 H370 V250 H360 V240 Z M74.5 250 H80 V260 H70 V254.5 A4.5 4.5 0 0 1 74.5 250 Z M80 250 H85.5 A4.5 4.5 0 0 1 90 254.5 V260 H80 V250 Z M124.5 250 H125.5 A4.5 4.5 0 0 1 130 254.5 V255.5 A4.5 4.5 0 0 1 125.5 260 H124.5 A4.5 4.5 0 0 1 120 255.5 V254.5 A4.5 4.5 0 0 1 124.5 250 Z M170 250 H180 V260 H170 V250 Z M180 250 H190 V255.5 A4.5 4.5 0 0 1 185.5 260 H180 V250 Z M200 250 H210 V260 H204.5 A4.5 4.5 0 0 1 200 255.5 V250 Z M210 250 H215.5 A4.5 4.5 0 0 1 220 254.5 V260 H210 V250 Z M230 250 H240 V260 H230 V250 Z M240 250 H250 V260 H240 V250 Z M264.5 250 H265.5 A4.5 4.5 0 0 1 270 254.5 V255.5 A4.5 4.5 0 0 1 265.5 260 H264.5 A4.5 4.5 0 0 1 260 255.5 V254.5 A4.5 4.5 0 0 1 264.5 250 Z M280 250 H290 V260 H280 V250 Z M290 250 H300 V260 H290 V250 Z M300 250 H310 V260 H300 V250 Z M330 250 H340 V260 H330 V250 Z M354.5 250 H360 V260 H354.5 A4.5 4.5 0 0 1 350 255.5 V254.5 A4.5 4.5 0 0 1 354.5 250 Z M360 250 H370 V260 H360 V250 Z M44.5 260 H45.5 A4.5 4.5 0 0 1 50 264.5 V265.5 A4.5 4.5 0 0 1 45.5 270 H44.5 A4.5 4.5 0 0 1 40 265.5 V264.5 A4.5 4.5 0 0 1 44.5 260 Z M64.5 260 H70 V270 H64.5 A4.5 4.5 0 0 1 60 265.5 V264.5 A4.5 4.5 0 0 1 64.5 260 Z M70 260 H80 V270 H70 V260 Z M80 260 H90 V265.5 A4.5 4.5 0 0 1 85.5 270 H80 V260 Z M104.5 260 H110 V270 H104.5 A4.5 4.5 0 0 1 100 265.5 V264.5 A4.5 4.5 0 0 1 104.5 260 Z M110 260 H115.5 A4.5 4.5 0 0 1 120 264.5 V270 H110 V260 Z M134.5 260 H140 V270 H134.5 A4.5 4.5 0 0 1 130 265.5 V264.5 A4.5 4.5 0 0 1 134.5 260 Z M140 260 H145.5 A4.5 4.5 0 0 1 150 264.5 V270 H140 V260 Z M170 260 H180 V270 H170 V260 Z M210 260 H220 V270 H210 V260 Z M220 260 H230 V270 H220 V260 Z M230 260 H240 V270 H230 V260 Z M240 260 H250 V270 H240 V260 Z M250 260 H255.5 A4.5 4.5 0 0 1 260 264.5 V270 H250 V260 Z M280 260 H290 V270 H280 V260 Z M300 260 H310 V265.5 A4.5 4.5 0 0 1 305.5 270 H304.5 A4.5 4.5 0 0 1 300 265.5 V260 Z M324.5 260 H330 V270 H324.5 A4.5 4.5 0 0 1 320 265.5 V264.5 A4.5 4.5 0 0 1 324.5 260 Z M330 260 H340 V270 H330 V260 Z M340 260 H345.5 A4.5 4.5 0 0 1 350 264.5 V265.5 A4.5 4.5 0 0 1 345.5 270 H340 V260 Z M360 260 H370 V270 H360 V260 Z M54.5 270 H55.5 A4.5 4.5 0 0 1 60 274.5 V275.5 A4.5 4.5 0 0 1 55.5 280 H54.5 A4.5 4.5 0 0 1 50 275.5 V274.5 A4.5 4.5 0 0 1 54.5 270 Z M110 270 H120 V280 H110 V270 Z M120 270 H125.5 A4.5 4.5 0 0 1 130 274.5 V275.5 A4.5 4.5 0 0 1 125.5 280 H120 V270 Z M140 270 H150 V280 H140 V270 Z M150 270 H160 V280 H150 V270 Z M160 270 H170 V280 H160 V270 Z M170 270 H180 V280 H170 V270 Z M204.5 270 H210 V280 H204.5 A4.5 4.5 0 0 1 200 275.5 V274.5 A4.5 4.5 0 0 1 204.5 270 Z M210 270 H220 V280 H210 V270 Z M250 270 H260 V280 H250 V270 Z M260 270 H265.5 A4.5 4.5 0 0 1 270 274.5 V275.5 A4.5 4.5 0 0 1 265.5 280 H260 V270 Z M280 270 H290 V280 H280 V270 Z M290 270 H295.5 A4.5 4.5 0 0 1 300 274.5 V280 H290 V270 Z M360 270 H370 V280 H360 V270 Z M44.5 280 H45.5 A4.5 4.5 0 0 1 50 284.5 V285.5 A4.5 4.5 0 0 1 45.5 290 H44.5 A4.5 4.5 0 0 1 40 285.5 V284.5 A4.5 4.5 0 0 1 44.5 280 Z M74.5 280 H80 V290 H74.5 A4.5 4.5 0 0 1 70 285.5 V284.5 A4.5 4.5 0 0 1 74.5 280 Z M80 280 H85.5 A4.5 4.5 0 0 1 90 284.5 V285.5 A4.5 4.5 0 0 1 85.5 290 H80 V280 Z M104.5 280 H110 V290 H104.5 A4.5 4.5 0 0 1 100 285.5 V284.5 A4.5 4.5 0 0 1 104.5 280 Z M110 280 H120 V285.5 A4.5 4.5 0 0 1 115.5 290 H110 V280 Z M140 280 H150 V290 H144.5 A4.5 4.5 0 0 1 140 285.5 V280 Z M150 280 H160 V290 H150 V280 Z M170 280 H180 V285.5 A4.5 4.5 0 0 1 175.5 290 H174.5 A4.5 4.5 0 0 1 170 285.5 V280 Z M210 280 H220 V290 H210 V280 Z M220 280 H230 V290 H220 V280 Z M230 280 H235.5 A4.5 4.5 0 0 1 240 284.5 V290 H230 V280 Z M250 280 H260 V285.5 A4.5 4.5 0 0 1 255.5 290 H254.5 A4.5 4.5 0 0 1 250 285.5 V280 Z M274.5 280 H280 V290 H270 V284.5 A4.5 4.5 0 0 1 274.5 280 Z M280 280 H290 V290 H280 V280 Z M290 280 H300 V290 H290 V280 Z M300 280 H310 V290 H300 V280 Z M310 280 H320 V290 H310 V280 Z M320 280 H330 V290 H320 V280 Z M330 280 H335.5 A4.5 4.5 0 0 1 340 284.5 V290 H330 V280 Z M360 280 H370 V290 H360 V280 Z M124.5 290 H130 V300 H124.5 A4.5 4.5 0 0 1 120 295.5 V294.5 A4.5 4.5 0 0 1 124.5 290 Z M130 290 H135.5 A4.5 4.5 0 0 1 140 294.5 V300 H130 V290 Z M150 290 H160 V300 H154.5 A4.5 4.5 0 0 1 150 295.5 V290 Z M160 290 H165.5 A4.5 4.5 0 0 1 170 294.5 V295.5 A4.5 4.5 0 0 1 165.5 300 H160 V290 Z M184.5 290 H190 V300 H180 V294.5 A4.5 4.5 0 0 1 184.5 290 Z M190 290 H200 V300 H190 V290 Z M200 290 H210 V300 H200 V290 Z M210 290 H220 V295.5 A4.5 4.5 0 0 1 215.5 300 H210 V290 Z M230 290 H240 V295.5 A4.5 4.5 0 0 1 235.5 300 H234.5 A4.5 4.5 0 0 1 230 295.5 V290 Z M264.5 290 H270 V300 H264.5 A4.5 4.5 0 0 1 260 295.5 V294.5 A4.5 4.5 0 0 1 264.5 290 Z M270 290 H280 V300 H270 V290 Z M280 290 H290 V300 H280 V290 Z M320 290 H330 V300 H320 V290 Z M330 290 H340 V300 H330 V290 Z M354.5 290 H360 V300 H350 V294.5 A4.5 4.5 0 0 1 354.5 290 Z M360 290 H370 V300 H360 V290 Z M44.5 300 H50 V310 H40 V304.5 A4.5 4.5 0 0 1 44.5 300 Z M50 300 H60 V310 H50 V300 Z M60 300 H70 V310 H60 V300 Z M70 300 H80 V310 H70 V300 Z M80 300 H90 V310 H80 V300 Z M90 300 H100 V310 H90 V300 Z M100 300 H105.5 A4.5 4.5 0 0 1 110 304.5 V310 H100 V300 Z M130 300 H140 V305.5 A4.5 4.5 0 0 1 135.5 310 H134.5 A4.5 4.5 0 0 1 130 305.5 V300 Z M174.5 300 H180 V310 H174.5 A4.5 4.5 0 0 1 170 305.5 V304.5 A4.5 4.5 0 0 1 174.5 300 Z M180 300 H190 V310 H180 V300 Z M224.5 300 H225.5 A4.5 4.5 0 0 1 230 304.5 V310 H220 V304.5 A4.5 4.5 0 0 1 224.5 300 Z M244.5 300 H250 V310 H240 V304.5 A4.5 4.5 0 0 1 244.5 300 Z M250 300 H255.5 A4.5 4.5 0 0 1 260 304.5 V310 H250 V300 Z M270 300 H280 V310 H274.5 A4.5 4.5 0 0 1 270 305.5 V300 Z M280 300 H290 V310 H280 V300 Z M304.5 300 H305.5 A4.5 4.5 0 0 1 310 304.5 V305.5 A4.5 4.5 0 0 1 305.5 310 H304.5 A4.5 4.5 0 0 1 300 305.5 V304.5 A4.5 4.5 0 0 1 304.5 300 Z M320 300 H330 V310 H320 V300 Z M330 300 H340 V305.5 A4.5 4.5 0 0 1 335.5 310 H330 V300 Z M350 300 H360 V310 H354.5 A4.5 4.5 0 0 1 350 305.5 V300 Z M360 300 H370 V310 H360 V300 Z M40 310 H50 V320 H40 V310 Z M100 310 H110 V320 H100 V310 Z M124.5 310 H125.5 A4.5 4.5 0 0 1 130 314.5 V320 H120 V314.5 A4.5 4.5 0 0 1 124.5 310 Z M180 310 H190 V320 H184.5 A4.5 4.5 0 0 1 180 315.5 V310 Z M190 310 H200 V320 H190 V310 Z M200 310 H210 V320 H200 V310 Z M210 310 H220 V320 H210 V310 Z M220 310 H230 V320 H220 V310 Z M230 310 H240 V320 H230 V310 Z M240 310 H250 V320 H240 V310 Z M250 310 H260 V315.5 A4.5 4.5 0 0 1 255.5 320 H250 V310 Z M280 310 H290 V320 H280 V310 Z M320 310 H330 V320 H320 V310 Z M360 310 H370 V315.5 A4.5 4.5 0 0 1 365.5 320 H364.5 A4.5 4.5 0 0 1 360 315.5 V310 Z M40 320 H50 V330 H40 V320 Z M64.5 320 H70 V330 H60 V324.5 A4.5 4.5 0 0 1 64.5 320 Z M70 320 H80 V330 H70 V320 Z M80 320 H85.5 A4.5 4.5 0 0 1 90 324.5 V330 H80 V320 Z M100 320 H110 V330 H100 V320 Z M120 320 H130 V330 H124.5 A4.5 4.5 0 0 1 120 325.5 V320 Z M130 320 H135.5 A4.5 4.5 0 0 1 140 324.5 V325.5 A4.5 4.5 0 0 1 135.5 330 H130 V320 Z M154.5 320 H155.5 A4.5 4.5 0 0 1 160 324.5 V325.5 A4.5 4.5 0 0 1 155.5 330 H154.5 A4.5 4.5 0 0 1 150 325.5 V324.5 A4.5 4.5 0 0 1 154.5 320 Z M190 320 H200 V330 H190 V320 Z M200 320 H210 V330 H200 V320 Z M210 320 H220 V330 H210 V320 Z M264.5 320 H265.5 A4.5 4.5 0 0 1 270 324.5 V325.5 A4.5 4.5 0 0 1 265.5 330 H264.5 A4.5 4.5 0 0 1 260 325.5 V324.5 A4.5 4.5 0 0 1 264.5 320 Z M280 320 H290 V330 H280 V320 Z M290 320 H300 V330 H290 V320 Z M300 320 H310 V330 H300 V320 Z M310 320 H320 V330 H310 V320 Z M320 320 H330 V330 H320 V320 Z M354.5 320 H355.5 A4.5 4.5 0 0 1 360 324.5 V330 H350 V324.5 A4.5 4.5 0 0 1 354.5 320 Z M40 330 H50 V340 H40 V330 Z M60 330 H70 V340 H60 V330 Z M70 330 H80 V340 H70 V330 Z M80 330 H90 V340 H80 V330 Z M100 330 H110 V340 H100 V330 Z M174.5 330 H175.5 A4.5 4.5 0 0 1 180 334.5 V335.5 A4.5 4.5 0 0 1 175.5 340 H174.5 A4.5 4.5 0 0 1 170 335.5 V334.5 A4.5 4.5 0 0 1 174.5 330 Z M190 330 H200 V340 H190 V330 Z M210 330 H220 V340 H210 V330 Z M254.5 330 H255.5 A4.5 4.5 0 0 1 260 334.5 V340 H250 V334.5 A4.5 4.5 0 0 1 254.5 330 Z M280 330 H290 V335.5 A4.5 4.5 0 0 1 285.5 340 H284.5 A4.5 4.5 0 0 1 280 335.5 V330 Z M320 330 H330 V340 H320 V330 Z M350 330 H360 V340 H354.5 A4.5 4.5 0 0 1 350 335.5 V330 Z M360 330 H365.5 A4.5 4.5 0 0 1 370 334.5 V340 H360 V330 Z M40 340 H50 V350 H40 V340 Z M60 340 H70 V350 H64.5 A4.5 4.5 0 0 1 60 345.5 V340 Z M70 340 H80 V350 H70 V340 Z M80 340 H90 V345.5 A4.5 4.5 0 0 1 85.5 350 H80 V340 Z M100 340 H110 V350 H100 V340 Z M124.5 340 H130 V350 H124.5 A4.5 4.5 0 0 1 120 345.5 V344.5 A4.5 4.5 0 0 1 124.5 340 Z M130 340 H135.5 A4.5 4.5 0 0 1 140 344.5 V345.5 A4.5 4.5 0 0 1 135.5 350 H130 V340 Z M164.5 340 H165.5 A4.5 4.5 0 0 1 170 344.5 V345.5 A4.5 4.5 0 0 1 165.5 350 H164.5 A4.5 4.5 0 0 1 160 345.5 V344.5 A4.5 4.5 0 0 1 164.5 340 Z M184.5 340 H190 V350 H180 V344.5 A4.5 4.5 0 0 1 184.5 340 Z M190 340 H200 V345.5 A4.5 4.5 0 0 1 195.5 350 H190 V340 Z M210 340 H220 V350 H210 V340 Z M234.5 340 H240 V350 H234.5 A4.5 4.5 0 0 1 230 345.5 V344.5 A4.5 4.5 0 0 1 234.5 340 Z M240 340 H250 V350 H240 V340 Z M250 340 H260 V350 H250 V340 Z M274.5 340 H275.5 A4.5 4.5 0 0 1 280 344.5 V350 H270 V344.5 A4.5 4.5 0 0 1 274.5 340 Z M294.5 340 H295.5 A4.5 4.5 0 0 1 300 344.5 V350 H290 V344.5 A4.5 4.5 0 0 1 294.5 340 Z M314.5 340 H320 V350 H310 V344.5 A4.5 4.5 0 0 1 314.5 340 Z M320 340 H330 V350 H320 V340 Z M330 340 H340 V350 H330 V340 Z M340 340 H345.5 A4.5 4.5 0 0 1 350 344.5 V345.5 A4.5 4.5 0 0 1 345.5 350 H340 V340 Z M360 340 H370 V345.5 A4.5 4.5 0 0 1 365.5 350 H364.5 A4.5 4.5 0 0 1 360 345.5 V340 Z M40 350 H50 V360 H40 V350 Z M100 350 H110 V360 H100 V350 Z M180 350 H190 V355.5 A4.5 4.5 0 0 1 185.5 360 H184.5 A4.5 4.5 0 0 1 180 355.5 V350 Z M210 350 H220 V355.5 A4.5 4.5 0 0 1 215.5 360 H214.5 A4.5 4.5 0 0 1 210 355.5 V350 Z M240 350 H250 V360 H240 V350 Z M250 350 H260 V360 H250 V350 Z M270 350 H280 V360 H270 V350 Z M280 350 H290 V360 H280 V350 Z M290 350 H300 V355.5 A4.5 4.5 0 0 1 295.5 360 H290 V350 Z M310 350 H320 V360 H310 V350 Z M330 350 H340 V360 H330 V350 Z M354.5 350 H355.5 A4.5 4.5 0 0 1 360 354.5 V360 H350 V354.5 A4.5 4.5 0 0 1 354.5 350 Z M40 360 H50 V370 H44.5 A4.5 4.5 0 0 1 40 365.5 V360 Z M50 360 H60 V370 H50 V360 Z M60 360 H70 V370 H60 V360 Z M70 360 H80 V370 H70 V360 Z M80 360 H90 V370 H80 V360 Z M90 360 H100 V370 H90 V360 Z M100 360 H110 V365.5 A4.5 4.5 0 0 1 105.5 370 H100 V360 Z M134.5 360 H140 V370 H134.5 A4.5 4.5 0 0 1 130 365.5 V364.5 A4.5 4.5 0 0 1 134.5 360 Z M140 360 H145.5 A4.5 4.5 0 0 1 150 364.5 V365.5 A4.5 4.5 0 0 1 145.5 370 H140 V360 Z M174.5 360 H175.5 A4.5 4.5 0 0 1 180 364.5 V365.5 A4.5 4.5 0 0 1 175.5 370 H174.5 A4.5 4.5 0 0 1 170 365.5 V364.5 A4.5 4.5 0 0 1 174.5 360 Z M204.5 360 H205.5 A4.5 4.5 0 0 1 210 364.5 V365.5 A4.5 4.5 0 0 1 205.5 370 H204.5 A4.5 4.5 0 0 1 200 365.5 V364.5 A4.5 4.5 0 0 1 204.5 360 Z M224.5 360 H225.5 A4.5 4.5 0 0 1 230 364.5 V365.5 A4.5 4.5 0 0 1 225.5 370 H224.5 A4.5 4.5 0 0 1 220 365.5 V364.5 A4.5 4.5 0 0 1 224.5 360 Z M240 360 H250 V370 H244.5 A4.5 4.5 0 0 1 240 365.5 V360 Z M250 360 H260 V365.5 A4.5 4.5 0 0 1 255.5 370 H250 V360 Z M270 360 H280 V370 H274.5 A4.5 4.5 0 0 1 270 365.5 V360 Z M280 360 H290 V365.5 A4.5 4.5 0 0 1 285.5 370 H280 V360 Z M310 360 H320 V370 H314.5 A4.5 4.5 0 0 1 310 365.5 V360 Z M320 360 H330 V370 H320 V360 Z M330 360 H340 V365.5 A4.5 4.5 0 0 1 335.5 370 H330 V360 Z M350 360 H360 V370 H354.5 A4.5 4.5 0 0 1 350 365.5 V360 Z M360 360 H365.5 A4.5 4.5 0 0 1 370 364.5 V365.5 A4.5 4.5 0 0 1 365.5 370 H360 V360 Z" fill="#000000"/></svg>