<?xml version="1.0" encoding="UTF-8"?><svg xmlns="http://www.w3.org/2000/svg" viewBox="0 0 450 450" width="450" height="450" shape-rendering="geometricPrecision"><rect width="100%" height="100%" fill="#FFFFFF"/><path d="M44.5 40 H50 V50 H40 V44.5 A4.5 4.5 0 0 1 44.5 40 Z M50 40 H60 V50 H50 V40 Z M60 40 H70 V50 H60 V40 Z M70 40 H80 V50 H70 V40 Z M80 40 H90 V50 H80 V40 Z M90 40 H100 V50 H90 V40 Z M100 40 H105.5 A4.5 4.5 0 0 1 110 44.5 V50 H100 V40 Z M144.5 40 H150 V50 H144.5 A4.5 4.5 0 0 1 140 45.5 V44.5 A4.5 4.5 0 0 1 144.5 40 Z M150 40 H155.5 A4.5 4.5 0 0 1 160 44.5 V45.5 A4.5 4.5 0 0 1 155.5 50 H150 V40 Z M174.5 40 H175.5 A4.5 4.5 0 0 1 180 44.5 V50 H170 V44.5 A4.5 4.5 0 0 1 174.5 40 Z M194.5 40 H200 V50 H190 V44.5 A4.5 4.5 0 0 1 194.5 40 Z M200 40 H210 V50 H200 V40 Z M210 40 H215.5 A4.5 4.5 0 0 1 220 44.5 V45.5 A4.5 4.5 0 0 1 215.5 50 H210 V40 Z M234.5 40 H240 V50 H230 V44.5 A4.5 4.5 0 0 1 234.5 40 Z M240 40 H245.5 A4.5 4.5 0 0 1 250 44.5 V45.5 A4.5 4.5 0 0 1 245.5 50 H240 V40 Z M304.5 40 H305.5 A4.5 4.5 0 0 1 310 44.5 V45.5 A4.5 4.5 0 0 1 305.5 50 H304.5 A4.5 4.5 0 0 1 300 45.5 V44.5 A4.5 4.5 0 0 1 304.5 40 Z M344.5 40 H350 V50 H340 V44.5 A4.5 4.5 0 0 1 344.5 40 Z M350 40 H360 V50 H350 V40 Z M360 40 H370 V50 H360 V40 Z M370 40 H380 V50 H370 V40 Z M380 40 H390 V50 H380 V40 Z M390 40 H400 V50 H390 V40 Z M400 40 H405.5 A4.5 4.5 0 0 1 410 44.5 V50 H400 V40 Z M40 50 H50 V60 H40 V50 Z M100 50 H110 V60 H100 V50 Z M170 50 H180 V55.5 A4.5 4.5 0 0 1 175.5 60 H174.5 A4.5 4.5 0 0 1 170 55.5 V50 Z M190 50 H200 V55.5 A4.5 4.5 0 0 1 195.5 60 H194.5 A4.5 4.5 0 0 1 190 55.5 V50 Z M224.5 50 H230 V60 H220 V54.5 A4.5 4.5 0 0 1 224.5 50 Z M230 50 H240 V55.5 A4.5 4.5 0 0 1 235.5 60 H230 V50 Z M274.5 50 H275.5 A4.5 4.5 0 0 1 280 54.5 V55.5 A4.5 4.5 0 0 1 275.5 60 H274.5 A4.5 4.5 0 0 1 270 55.5 V54.5 A4.5 4.5 0 0 1 274.5 50 Z M294.5 50 H295.5 A4.5 4.5 0 0 1 300 54.5 V60 H290 V54.5 A4.5 4.5 0 0 1 294.5 50 Z M340 50 H350 V60 H340 V50 Z M400 50 H410 V60 H400 V50 Z M40 60 H50 V70 H40 V60 Z M64.5 60 H70 V70 H60 V64.5 A4.5 4.5 0 0 1 64.5 60 Z M70 60 H80 V70 H70 V60 Z M80 60 H85.5 A4.5 4.5 0 0 1 90 64.5 V70 H80 V60 Z M100 60 H110 V70 H100 V60 Z M124.5 60 H130 V70 H120 V64.5 A4.5 4.5 0 0 1 124.5 60 Z M130 60 H140 V70 H130 V60 Z M140 60 H150 V70 H140 V60 Z M150 60 H155.5 A4.5 4.5 0 0 1 160 64.5 V65.5 A4.5 4.5 0 0 1 155.5 70 H150 V60 Z M184.5 60 H185.5 A4.5 4.5 0 0 1 190 64.5 V65.5 A4.5 4.5 0 0 1 185.5 70 H184.5 A4.5 4.5 0 0 1 180 65.5 V64.5 A4.5 4.5 0 0 1 184.5 60 Z M204.5 60 H205.5 A4.5 4.5 0 0 1 210 64.5 V70 H200 V64.5 A4.5 4.5 0 0 1 204.5 60 Z M220 60 H230 V70 H220 V60 Z M264.5 60 H265.5 A4.5 4.5 0 0 1 270 64.5 V65.5 A4.5 4.5 0 0 1 265.5 70 H264.5 A4.5 4.5 0 0 1 260 65.5 V64.5 A4.5 4.5 0 0 1 264.5 60 Z M284.5 60 H290 V70 H284.5 A4.5 4.5 0 0 1 280 65.5 V64.5 A4.5 4.5 0 0 1 284.5 60 Z M290 60 H300 V70 H290 V60 Z M300 60 H305.5 A4.5 4.5 0 0 1 310 64.5 V65.5 A4.5 4.5 0 0 1 305.5 70 H300 V60 Z M340 60 H350 V70 H340 V60 Z M364.5 60 H370 V70 H360 V64.5 A4.5 4.5 0 0 1 364.5 60 Z M370 60 H380 V70 H370 V60 Z M380 60 H385.5 A4.5 4.5 0 0 1 390 64.5 V70 H380 V60 Z M400 60 H410 V70 H400 V60 Z M40 70 H50 V80 H40 V70 Z M60 70 H70 V80 H60 V70 Z M70 70 H80 V80 H70 V70 Z M80 70 H90 V80 H80 V70 Z M100 70 H110 V80 H100 V70 Z M120 70 H130 V75.5 A4.5 4.5 0 0 1 125.5 80 H124.5 A4.5 4.5 0 0 1 120 75.5 V70 Z M140 70 H150 V75.5 A4.5 4.5 0 0 1 145.5 80 H144.5 A4.5 4.5 0 0 1 140 75.5 V70 Z M164.5 70 H170 V80 H164.5 A4.5 4.5 0 0 1 160 75.5 V74.5 A4.5 4.5 0 0 1 164.5 70 Z M170 70 H175.5 A4.5 4.5 0 0 1 180 74.5 V75.5 A4.5 4.5 0 0 1 175.5 80 H170 V70 Z M200 70 H210 V80 H204.5 A4.5 4.5 0 0 1 200 75.5 V70 Z M210 70 H220 V80 H210 V70 Z M220 70 H230 V75.5 A4.5 4.5 0 0 1 225.5 80 H220 V70 Z M254.5 70 H255.5 A4.5 4.5 0 0 1 260 74.5 V75.5 A4.5 4.5 0 0 1 255.5 80 H254.5 A4.5 4.5 0 0 1 250 75.5 V74.5 A4.5 4.5 0 0 1 254.5 70 Z M290 70 H300 V75.5 A4.5 4.5 0 0 1 295.5 80 H294.5 A4.5 4.5 0 0 1 290 75.5 V70 Z M314.5 70 H320 V80 H314.5 A4.5 4.5 0 0 1 310 75.5 V74.5 A4.5 4.5 0 0 1 314.5 70 Z M320 70 H325.5 A4.5 4.5 0 0 1 330 74.5 V75.5 A4.5 4.5 0 0 1 325.5 80 H320 V70 Z M340 70 H350 V80 H340 V70 Z M360 70 H370 V80 H360 V70 Z M370 70 H380 V80 H370 V70 Z M380 70 H390 V80 H380 V70 Z M400 70 H410 V80 H400 V70 Z M40 80 H50 V90 H40 V80 Z M60 80 H70 V90 H64.5 A4.5 4.5 0 0 1 60 85.5 V80 Z M70 80 H80 V90 H70 V80 Z M80 80 H90 V85.5 A4.5 4.5 0 0 1 85.5 90 H80 V80 Z M100 80 H110 V90 H100 V80 Z M134.5 80 H135.5 A4.5 4.5 0 0 1 140 84.5 V85.5 A4.5 4.5 0 0 1 135.5 90 H134.5 A4.5 4.5 0 0 1 130 85.5 V84.5 A4.5 4.5 0 0 1 134.5 80 Z M154.5 80 H155.5 A4.5 4.5 0 0 1 160 84.5 V90 H150 V84.5 A4.5 4.5 0 0 1 154.5 80 Z M184.5 80 H185.5 A4.5 4.5 0 0 1 190 84.5 V90 H180 V84.5 A4.5 4.5 0 0 1 184.5 80 Z M210 80 H220 V90 H210 V80 Z M234.5 80 H235.5 A4.5 4.5 0 0 1 240 84.5 V90 H230 V84.5 A4.5 4.5 0 0 1 234.5 80 Z M264.5 80 H270 V90 H260 V84.5 A4.5 4.5 0 0 1 264.5 80 Z M270 80 H275.5 A4.5 4.5 0 0 1 280 84.5 V85.5 A4.5 4.5 0 0 1 275.5 90 H270 V80 Z M340 80 H350 V90 H340 V80 Z M360 80 H370 V90 H364.5 A4.5 4.5 0 0 1 360 85.5 V80 Z M370 80 H380 V90 H370 V80 Z M380 80 H390 V85.5 A4.5 4.5 0 0 1 385.5 90 H380 V80 Z M400 80 H410 V90 H400 V80 Z M40 90 H50 V100 H40 V90 Z M100 90 H110 V100 H100 V90 Z M150 90 H160 V95.5 A4.5 4.5 0 0 1 155.5 100 H154.5 A4.5 4.5 0 0 1 150 95.5 V90 Z M174.5 90 H180 V100 H174.5 A4.5 4.5 0 0 1 170 95.5 V94.5 A4.5 4.5 0 0 1 174.5 90 Z M180 90 H190 V100 H180 V90 Z M190 90 H200 V100 H190 V90 Z M200 90 H210 V100 H200 V90 Z M210 90 H220 V100 H210 V90 Z M220 90 H230 V100 H220 V90 Z M230 90 H240 V100 H230 V90 Z M240 90 H250 V100 H240 V90 Z M250 90 H260 V100 H250 V90 Z M260 90 H270 V100 H260 V90 Z M284.5 90 H285.5 A4.5 4.5 0 0 1 290 94.5 V100 H280 V94.5 A4.5 4.5 0 0 1 284.5 90 Z M340 90 H350 V100 H340 V90 Z M400 90 H410 V100 H400 V90 Z M40 100 H50 V110 H44.5 A4.5 4.5 0 0 1 40 105.5 V100 Z M50 100 H60 V110 H50 V100 Z M60 100 H70 V110 H60 V100 Z M70 100 H80 V110 H70 V100 Z M80 100 H90 V110 H80 V100 Z M90 100 H100 V110 H90 V100 Z M100 100 H110 V105.5 A4.5 4.5 0 0 1 105.5 110 H100 V100 Z M124.5 100 H125.5 A4.5 4.5 0 0 1 130 104.5 V105.5 A4.5 4.5 0 0 1 125.5 110 H124.5 A4.5 4.5 0 0 1 120 105.5 V104.5 A4.5 4.5 0 0 1 124.5 100 Z M144.5 100 H145.5 A4.5 4.5 0 0 1 150 104.5 V105.5 A4.5 4.5 0 0 1 145.5 110 H144.5 A4.5 4.5 0 0 1 140 105.5 V104.5 A4.5 4.5 0 0 1 144.5 100 Z M164.5 100 H165.5 A4.5 4.5 0 0 1 170 104.5 V105.5 A4.5 4.5 0 0 1 165.5 110 H164.5 A4.5 4.5 0 0 1 160 105.5 V104.5 A4.5 4.5 0 0 1 164.5 100 Z M180 100 H190 V110 H180 V100 Z M200 100 H210 V105.5 A4.5 4.5 0 0 1 205.5 110 H204.5 A4.5 4.5 0 0 1 200 105.5 V100 Z M220 100 H230 V110 H220 V100 Z M240 100 H250 V110 H240 V100 Z M260 100 H270 V105.5 A4.5 4.5 0 0 1 265.5 110 H264.5 A4.5 4.5 0 0 1 260 105.5 V100 Z M280 100 H290 V105.5 A4.5 4.5 0 0 1 285.5 110 H284.5 A4.5 4.5 0 0 1 280 105.5 V100 Z M304.5 100 H305.5 A4.5 4.5 0 0 1 310 104.5 V105.5 A4.5 4.5 0 0 1 305.5 110 H304.5 A4.5 4.5 0 0 1 300 105.5 V104.5 A4.5 4.5 0 0 1 304.5 100 Z M324.5 100 H325.5 A4.5 4.5 0 0 1 330 104.5 V110 H320 V104.5 A4.5 4.5 0 0 1 324.5 100 Z M340 100 H350 V110 H344.5 A4.5 4.5 0 0 1 340 105.5 V100 Z M350 100 H360 V110 H350 V100 Z M360 100 H370 V110 H360 V100 Z M370 100 H380 V110 H370 V100 Z M380 100 H390 V110 H380 V100 Z M390 100 H400 V110 H390 V100 Z M400 100 H410 V105.5 A4.5 4.5 0 0 1 405.5 110 H400 V100 Z M134.5 110 H135.5 A4.5 4.5 0 0 1 140 114.5 V120 H130 V114.5 A4.5 4.5 0 0 1 134.5 110 Z M154.5 110 H155.5 A4.5 4.5 0 0 1 160 114.5 V115.5 A4.5 4.5 0 0 1 155.5 120 H154.5 A4.5 4.5 0 0 1 150 115.5 V114.5 A4.5 4.5 0 0 1 154.5 110 Z M180 110 H190 V120 H180 V110 Z M220 110 H230 V120 H220 V110 Z M240 110 H250 V115.5 A4.5 4.5 0 0 1 245.5 120 H244.5 A4.5 4.5 0 0 1 240 115.5 V110 Z M294.5 110 H295.5 A4.5 4.5 0 0 1 300 114.5 V120 H290 V114.5 A4.5 4.5 0 0 1 294.5 110 Z M314.5 110 H320 V120 H314.5 A4.5 4.5 0 0 1 310 115.5 V114.5 A4.5 4.5 0 0 1 314.5 110 Z M320 110 H330 V120 H320 V110 Z M74.5 120 H80 V130 H70 V124.5 A4.5 4.5 0 0 1 74.5 120 Z M80 120 H85.5 A4.5 4.5 0 0 1 90 124.5 V130 H80 V120 Z M104.5 120 H110 V130 H104.5 A4.5 4.5 0 0 1 100 125.5 V124.5 A4.5 4.5 0 0 1 104.5 120 Z M110 120 H115.5 A4.5 4.5 0 0 1 120 124.5 V125.5 A4.5 4.5 0 0 1 115.5 130 H110 V120 Z M130 120 H140 V125.5 A4.5 4.5 0 0 1 135.5 130 H134.5 A4.5 4.5 0 0 1 130 125.5 V120 Z M164.5 120 H165.5 A4.5 4.5 0 0 1 170 124.5 V125.5 A4.5 4.5 0 0 1 165.5 130 H164.5 A4.5 4.5 0 0 1 160 125.5 V124.5 A4.5 4.5 0 0 1 164.5 120 Z M180 120 H190 V130 H180 V120 Z M204.5 120 H205.5 A4.5 4.5 0 0 1 210 124.5 V125.5 A4.5 4.5 0 0 1 205.5 130 H204.5 A4.5 4.5 0 0 1 200 125.5 V124.5 A4.5 4.5 0 0 1 204.5 120 Z M220 120 H230 V125.5 A4.5 4.5 0 0 1 225.5 130 H224.5 A4.5 4.5 0 0 1 220 125.5 V120 Z M254.5 120 H260 V130 H250 V124.5 A4.5 4.5 0 0 1 254.5 120 Z M260 120 H270 V130 H260 V120 Z M270 120 H275.5 A4.5 4.5 0 0 1 280 124.5 V130 H270 V120 Z M290 120 H300 V130 H290 V120 Z M320 120 H330 V125.5 A4.5 4.5 0 0 1 325.5 130 H324.5 A4.5 4.5 0 0 1 320 125.5 V120 Z M374.5 120 H380 V130 H370 V124.5 A4.5 4.5 0 0 1 374.5 120 Z M380 120 H385.5 A4.5 4.5 0 0 1 390 124.5 V130 H380 V120 Z M54.5 130 H55.5 A4.5 4.5 0 0 1 60 134.5 V135.5 A4.5 4.5 0 0 1 55.5 140 H54.5 A4.5 4.5 0 0 1 50 135.5 V134.5 A4.5 4.5 0 0 1 54.5 130 Z M70 130 H80 V140 H74.5 A4.5 4.5 0 0 1 70 135.5 V130 Z M80 130 H90 V140 H80 V130 Z M90 130 H95.5 A4.5 4.5 0 0 1 100 134.5 V140 H90 V130 Z M124.5 130 H125.5 A4.5 4.5 0 0 1 130 134.5 V135.5 A4.5 4.5 0 0 1 125.5 140 H124.5 A4.5 4.5 0 0 1 120 135.5 V134.5 A4.5 4.5 0 0 1 124.5 130 Z M144.5 130 H150 V140 H144.5 A4.5 4.5 0 0 1 140 135.5 V134.5 A4.5 4.5 0 0 1 144.5 130 Z M150 130 H155.5 A4.5 4.5 0 0 1 160 134.5 V135.5 A4.5 4.5 0 0 1 155.5 140 H150 V130 Z M180 130 H190 V140 H180 V130 Z M250 130 H260 V140 H250 V130 Z M260 130 H270 V140 H260 V130 Z M270 130 H280 V135.5 A4.5 4.5 0 0 1 275.5 140 H270 V130 Z M290 130 H300 V140 H290 V130 Z M334.5 130 H340 V140 H330 V134.5 A4.5 4.5 0 0 1 334.5 130 Z M340 130 H345.5 A4.5 4.5 0 0 1 350 134.5 V140 H340 V130 Z M364.5 130 H370 V140 H360 V134.5 A4.5 4.5 0 0 1 364.5 130 Z M370 130 H380 V140 H370 V130 Z M380 130 H390 V135.5 A4.5 4.5 0 0 1 385.5 140 H380 V130 Z M44.5 140 H45.5 A4.5 4.5 0 0 1 50 144.5 V150 H40 V144.5 A4.5 4.5 0 0 1 44.5 140 Z M64.5 140 H65.5 A4.5 4.5 0 0 1 70 144.5 V145.5 A4.5 4.5 0 0 1 65.5 150 H64.5 A4.5 4.5 0 0 1 60 145.5 V144.5 A4.5 4.5 0 0 1 64.5 140 Z M90 140 H100 V150 H90 V140 Z M100 140 H110 V150 H100 V140 Z M110 140 H115.5 A4.5 4.5 0 0 1 120 144.5 V145.5 A4.5 4.5 0 0 1 115.5 150 H110 V140 Z M134.5 140 H135.5 A4.5 4.5 0 0 1 140 144.5 V150 H130 V144.5 A4.5 4.5 0 0 1 134.5 140 Z M174.5 140 H180 V150 H174.5 A4.5 4.5 0 0 1 170 145.5 V144.5 A4.5 4.5 0 0 1 174.5 140 Z M180 140 H190 V150 H180 V140 Z M190 140 H195.5 A4.5 4.5 0 0 1 200 144.5 V150 H190 V140 Z M214.5 140 H215.5 A4.5 4.5 0 0 1 220 144.5 V145.5 A4.5 4.5 0 0 1 215.5 150 H214.5 A4.5 4.5 0 0 1 210 145.5 V144.5 A4.5 4.5 0 0 1 214.5 140 Z M250 140 H260 V150 H250 V140 Z M260 140 H270 V150 H260 V140 Z M284.5 140 H290 V150 H284.5 A4.5 4.5 0 0 1 280 145.5 V144.5 A4.5 4.5 0 0 1 284.5 140 Z M290 140 H300 V145.5 A4.5 4.5 0 0 1 295.5 150 H290 V140 Z M330 140 H340 V150 H330 V140 Z M340 140 H350 V150 H340 V140 Z M350 140 H360 V150 H350 V140 Z M360 140 H370 V145.5 A4.5 4.5 0 0 1 365.5 150 H360 V140 Z M404.5 140 H405.5 A4.5 4.5 0 0 1 410 144.5 V145.5 A4.5 4.5 0 0 1 405.5 150 H404.5 A4.5 4.5 0 0 1 400 145.5 V144.5 A4.5 4.5 0 0 1 404.5 140 Z M40 150 H50 V155.5 A4.5 4.5 0 0 1 45.5 160 H44.5 A4.5 4.5 0 0 1 40 155.5 V150 Z M90 150 H100 V155.5 A4.5 4.5 0 0 1 95.5 160 H94.5 A4.5 4.5 0 0 1 90 155.5 V150 Z M124.5 150 H130 V160 H124.5 A4.5 4.5 0 0 1 120 155.5 V154.5 A4.5 4.5 0 0 1 124.5 150 Z M130 150 H140 V155.5 A4.5 4.5 0 0 1 135.5 160 H130 V150 Z M154.5 150 H160 V160 H150 V154.5 A4.5 4.5 0 0 1 154.5 150 Z M160 150 H165.5 A4.5 4.5 0 0 1 170 154.5 V155.5 A4.5 4.5 0 0 1 165.5 160 H160 V150 Z M190 150 H200 V155.5 A4.5 4.5 0 0 1 195.5 160 H194.5 A4.5 4.5 0 0 1 190 155.5 V150 Z M224.5 150 H225.5 A4.5 4.5 0 0 1 230 154.5 V155.5 A4.5 4.5 0 0 1 225.5 160 H224.5 A4.5 4.5 0 0 1 220 155.5 V154.5 A4.5 4.5 0 0 1 224.5 150 Z M244.5 150 H250 V160 H244.5 A4.5 4.5 0 0 1 240 155.5 V154.5 A4.5 4.5 0 0 1 244.5 150 Z M250 150 H260 V160 H250 V150 Z M260 150 H270 V160 H260 V150 Z M304.5 150 H310 V160 H304.5 A4.5 4.5 0 0 1 300 155.5 V154.5 A4.5 4.5 0 0 1 304.5 150 Z M310 150 H315.5 A4.5 4.5 0 0 1 320 154.5 V155.5 A4.5 4.5 0 0 1 315.5 160 H310 V150 Z M330 150 H340 V160 H334.5 A4.5 4.5 0 0 1 330 155.5 V150 Z M340 150 H350 V160 H340 V150 Z M374.5 150 H380 V160 H374.5 A4.5 4.5 0 0 1 370 155.5 V154.5 A4.5 4.5 0 0 1 374.5 150 Z M380 150 H385.5 A4.5 4.5 0 0 1 390 154.5 V155.5 A4.5 4.5 0 0 1 385.5 160 H380 V150 Z M104.5 160 H105.5 A4.5 4.5 0 0 1 110 164.5 V165.5 A4.5 4.5 0 0 1 105.5 170 H104.5 A4.5 4.5 0 0 1 100 165.5 V164.5 A4.5 4.5 0 0 1 104.5 160 Z M144.5 160 H150 V170 H140 V164.5 A4.5 4.5 0 0 1 144.5 160 Z M150 160 H160 V165.5 A4.5 4.5 0 0 1 155.5 170 H150 V160 Z M174.5 160 H180 V170 H170 V164.5 A4.5 4.5 0 0 1 174.5 160 Z M180 160 H185.5 A4.5 4.5 0 0 1 190 164.5 V170 H180 V160 Z M204.5 160 H205.5 A4.5 4.5 0 0 1 210 164.5 V170 H200 V164.5 A4.5 4.5 0 0 1 204.5 160 Z M260 160 H270 V170 H260 V160 Z M270 160 H280 V170 H270 V160 Z M280 160 H285.5 A4.5 4.5 0 0 1 290 164.5 V165.5 A4.5 4.5 0 0 1 285.5 170 H280 V160 Z M340 160 H350 V165.5 A4.5 4.5 0 0 1 345.5 170 H344.5 A4.5 4.5 0 0 1 340 165.5 V160 Z M54.5 170 H60 V180 H50 V174.5 A4.5 4.5 0 0 1 54.5 170 Z M60 170 H65.5 A4.5 4.5 0 0 1 70 174.5 V180 H60 V170 Z M84.5 170 H90 V180 H84.5 A4.5 4.5 0 0 1 80 175.5 V174.5 A4.5 4.5 0 0 1 84.5 170 Z M90 170 H95.5 A4.5 4.5 0 0 1 100 174.5 V175.5 A4.5 4.5 0 0 1 95.5 180 H90 V170 Z M140 170 H150 V180 H140 V170 Z M164.5 170 H170 V180 H160 V174.5 A4.5 4.5 0 0 1 164.5 170 Z M170 170 H180 V180 H170 V170 Z M180 170 H190 V180 H180 V170 Z M200 170 H210 V180 H200 V170 Z M234.5 170 H235.5 A4.5 4.5 0 0 1 240 174.5 V175.5 A4.5 4.5 0 0 1 235.5 180 H234.5 A4.5 4.5 0 0 1 230 175.5 V174.5 A4.5 4.5 0 0 1 234.5 170 Z M254.5 170 H260 V180 H254.5 A4.5 4.5 0 0 1 250 175.5 V174.5 A4.5 4.5 0 0 1 254.5 170 Z M260 170 H270 V180 H260 V170 Z M270 170 H280 V175.5 A4.5 4.5 0 0 1 275.5 180 H270 V170 Z M294.5 170 H300 V180 H294.5 A4.5 4.5 0 0 1 290 175.5 V174.5 A4.5 4.5 0 0 1 294.5 170 Z M300 170 H310 V180 H300 V170 Z M310 170 H315.5 A4.5 4.5 0 0 1 320 174.5 V180 H310 V170 Z M334.5 170 H335.5 A4.5 4.5 0 0 1 340 174.5 V175.5 A4.5 4.5 0 0 1 335.5 180 H334.5 A4.5 4.5 0 0 1 330 175.5 V174.5 A4.5 4.5 0 0 1 334.5 170 Z M364.5 170 H365.5 A4.5 4.5 0 0 1 370 174.5 V180 H360 V174.5 A4.5 4.5 0 0 1 364.5 170 Z M384.5 170 H385.5 A4.5 4.5 0 0 1 390 174.5 V180 H380 V174.5 A4.5 4.5 0 0 1 384.5 170 Z M44.5 180 H50 V190 H44.5 A4.5 4.5 0 0 1 40 185.5 V184.5 A4.5 4.5 0 0 1 44.5 180 Z M50 180 H60 V190 H50 V180 Z M60 180 H70 V190 H60 V180 Z M70 180 H75.5 A4.5 4.5 0 0 1 80 184.5 V185.5 A4.5 4.5 0 0 1 75.5 190 H70 V180 Z M104.5 180 H105.5 A4.5 4.5 0 0 1 110 184.5 V185.5 A4.5 4.5 0 0 1 105.5 190 H104.5 A4.5 4.5 0 0 1 100 185.5 V184.5 A4.5 4.5 0 0 1 104.5 180 Z M124.5 180 H130 V190 H124.5 A4.5 4.5 0 0 1 120 185.5 V184.5 A4.5 4.5 0 0 1 124.5 180 Z M130 180 H140 V190 H130 V180 Z M140 180 H150 V185.5 A4.5 4.5 0 0 1 145.5 190 H140 V180 Z M160 180 H170 V190 H160 V180 Z M180 180 H190 V185.5 A4.5 4.5 0 0 1 185.5 190 H184.5 A4.5 4.5 0 0 1 180 185.5 V180 Z M200 180 H210 V185.5 A4.5 4.5 0 0 1 205.5 190 H204.5 A4.5 4.5 0 0 1 200 185.5 V180 Z M224.5 180 H225.5 A4.5 4.5 0 0 1 230 184.5 V190 H220 V184.5 A4.5 4.5 0 0 1 224.5 180 Z M244.5 180 H245.5 A4.5 4.5 0 0 1 250 184.5 V185.5 A4.5 4.5 0 0 1 245.5 190 H244.5 A4.5 4.5 0 0 1 240 185.5 V184.5 A4.5 4.5 0 0 1 244.5 180 Z M260 180 H270 V185.5 A4.5 4.5 0 0 1 265.5 190 H264.5 A4.5 4.5 0 0 1 260 185.5 V180 Z M284.5 180 H285.5 A4.5 4.5 0 0 1 290 184.5 V185.5 A4.5 4.5 0 0 1 285.5 190 H284.5 A4.5 4.5 0 0 1 280 185.5 V184.5 A4.5 4.5 0 0 1 284.5 180 Z M310 180 H320 V185.5 A4.5 4.5 0 0 1 315.5 190 H314.5 A4.5 4.5 0 0 1 310 185.5 V180 Z M344.5 180 H345.5 A4.5 4.5 0 0 1 350 184.5 V185.5 A4.5 4.5 0 0 1 345.5 190 H344.5 A4.5 4.5 0 0 1 340 185.5 V184.5 A4.5 4.5 0 0 1 344.5 180 Z M360 180 H370 V190 H364.5 A4.5 4.5 0 0 1 360 185.5 V180 Z M370 180 H380 V190 H370 V180 Z M380 180 H390 V190 H380 V180 Z M390 180 H400 V190 H390 V180 Z M400 180 H405.5 A4.5 4.5 0 0 1 410 184.5 V190 H400 V180 Z M84.5 190 H85.5 A4.5 4.5 0 0 1 90 194.5 V200 H80 V194.5 A4.5 4.5 0 0 1 84.5 190 Z M160 190 H170 V200 H164.5 A4.5 4.5 0 0 1 160 195.5 V190 Z M170 190 H175.5 A4.5 4.5 0 0 1 180 194.5 V195.5 A4.5 4.5 0 0 1 175.5 200 H170 V190 Z M220 190 H230 V200 H224.5 A4.5 4.5 0 0 1 220 195.5 V190 Z M230 190 H235.5 A4.5 4.5 0 0 1 240 194.5 V200 H230 V190 Z M334.5 190 H335.5 A4.5 4.5 0 0 1 340 194.5 V195.5 A4.5 4.5 0 0 1 335.5 200 H334.5 A4.5 4.5 0 0 1 330 195.5 V194.5 A4.5 4.5 0 0 1 334.5 190 Z M354.5 190 H355.5 A4.5 4.5 0 0 1 360 194.5 V200 H350 V194.5 A4.5 4.5 0 0 1 354.5 190 Z M370 190 H380 V200 H374.5 A4.5 4.5 0 0 1 370 195.5 V190 Z M380 190 H390 V200 H380 V190 Z M400 190 H410 V200 H400 V190 Z M44.5 200 H45.5 A4.5 4.5 0 0 1 50 204.5 V205.5 A4.5 4.5 0 0 1 45.5 210 H44.5 A4.5 4.5 0 0 1 40 205.5 V204.5 A4.5 4.5 0 0 1 44.5 200 Z M64.5 200 H65.5 A4.5 4.5 0 0 1 70 204.5 V210 H60 V204.5 A4.5 4.5 0 0 1 64.5 200 Z M80 200 H90 V210 H80 V200 Z M90 200 H100 V210 H90 V200 Z M100 200 H105.5 A4.5 4.5 0 0 1 110 204.5 V205.5 A4.5 4.5 0 0 1 105.5 210 H100 V200 Z M124.5 200 H130 V210 H124.5 A4.5 4.5 0 0 1 120 205.5 V204.5 A4.5 4.5 0 0 1 124.5 200 Z M130 200 H135.5 A4.5 4.5 0 0 1 140 204.5 V205.5 A4.5 4.5 0 0 1 135.5 210 H130 V200 Z M154.5 200 H155.5 A4.5 4.5 0 0 1 160 204.5 V205.5 A4.5 4.5 0 0 1 155.5 210 H154.5 A4.5 4.5 0 0 1 150 205.5 V204.5 A4.5 4.5 0 0 1 154.5 200 Z M194.5 200 H200 V210 H194.5 A4.5 4.5 0 0 1 190 205.5 V204.5 A4.5 4.5 0 0 1 194.5 200 Z M200 200 H210 V210 H200 V200 Z M210 200 H215.5 A4.5 4.5 0 0 1 220 204.5 V210 H210 V200 Z M230 200 H240 V210 H230 V200 Z M254.5 200 H260 V210 H250 V204.5 A4.5 4.5 0 0 1 254.5 200 Z M260 200 H265.5 A4.5 4.5 0 0 1 270 204.5 V205.5 A4.5 4.5 0 0 1 265.5 210 H260 V200 Z M294.5 200 H295.5 A4.5 4.5 0 0 1 300 204.5 V205.5 A4.5 4.5 0 0 1 295.5 210 H294.5 A4.5 4.5 0 0 1 290 205.5 V204.5 A4.5 4.5 0 0 1 294.5 200 Z M314.5 200 H315.5 A4.5 4.5 0 0 1 320 204.5 V210 H310 V204.5 A4.5 4.5 0 0 1 314.5 200 Z M344.5 200 H350 V210 H344.5 A4.5 4.5 0 0 1 340 205.5 V204.5 A4.5 4.5 0 0 1 344.5 200 Z M350 200 H360 V210 H350 V200 Z M380 200 H390 V210 H380 V200 Z M400 200 H410 V205.5 A4.5 4.5 0 0 1 405.5 210 H404.5 A4.5 4.5 0 0 1 400 205.5 V200 Z M54.5 210 H60 V220 H54.5 A4.5 4.5 0 0 1 50 215.5 V214.5 A4.5 4.5 0 0 1 54.5 210 Z M60 210 H70 V220 H60 V210 Z M70 210 H80 V220 H70 V210 Z M80 210 H90 V220 H80 V210 Z M90 210 H100 V215.5 A4.5 4.5 0 0 1 95.5 220 H90 V210 Z M164.5 210 H165.5 A4.5 4.5 0 0 1 170 214.5 V220 H160 V214.5 A4.5 4.5 0 0 1 164.5 210 Z M200 210 H210 V220 H200 V210 Z M210 210 H220 V215.5 A4.5 4.5 0 0 1 215.5 220 H210 V210 Z M230 210 H240 V215.5 A4.5 4.5 0 0 1 235.5 220 H234.5 A4.5 4.5 0 0 1 230 215.5 V210 Z M250 210 H260 V215.5 A4.5 4.5 0 0 1 255.5 220 H254.5 A4.5 4.5 0 0 1 250 215.5 V210 Z M284.5 210 H285.5 A4.5 4.5 0 0 1 290 214.5 V215.5 A4.5 4.5 0 0 1 285.5 220 H284.5 A4.5 4.5 0 0 1 280 215.5 V214.5 A4.5 4.5 0 0 1 284.5 210 Z M310 210 H320 V220 H310 V210 Z M320 210 H325.5 A4.5 4.5 0 0 1 330 214.5 V215.5 A4.5 4.5 0 0 1 325.5 220 H320 V210 Z M350 210 H360 V215.5 A4.5 4.5 0 0 1 355.5 220 H354.5 A4.5 4.5 0 0 1 350 215.5 V210 Z M380 210 H390 V220 H384.5 A4.5 4.5 0 0 1 380 215.5 V210 Z M390 210 H395.5 A4.5 4.5 0 0 1 400 214.5 V215.5 A4.5 4.5 0 0 1 395.5 220 H390 V210 Z M70 220 H80 V225.5 A4.5 4.5 0 0 1 75.5 230 H74.5 A4.5 4.5 0 0 1 70 225.5 V220 Z M104.5 220 H105.5 A4.5 4.5 0 0 1 110 224.5 V225.5 A4.5 4.5 0 0 1 105.5 230 H104.5 A4.5 4.5 0 0 1 100 225.5 V224.5 A4.5 4.5 0 0 1 104.5 220 Z M124.5 220 H130 V230 H124.5 A4.5 4.5 0 0 1 120 225.5 V224.5 A4.5 4.5 0 0 1 124.5 220 Z M130 220 H140 V230 H130 V220 Z M140 220 H145.5 A4.5 4.5 0 0 1 150 224.5 V225.5 A4.5 4.5 0 0 1 145.5 230 H140 V220 Z M160 220 H170 V230 H160 V220 Z M194.5 220 H200 V230 H194.5 A4.5 4.5 0 0 1 190 225.5 V224.5 A4.5 4.5 0 0 1 194.5 220 Z M200 220 H210 V230 H200 V220 Z M224.5 220 H225.5 A4.5 4.5 0 0 1 230 224.5 V230 H220 V224.5 A4.5 4.5 0 0 1 224.5 220 Z M264.5 220 H265.5 A4.5 4.5 0 0 1 270 224.5 V225.5 A4.5 4.5 0 0 1 265.5 230 H264.5 A4.5 4.5 0 0 1 260 225.5 V224.5 A4.5 4.5 0 0 1 264.5 220 Z M294.5 220 H300 V230 H290 V224.5 A4.5 4.5 0 0 1 294.5 220 Z M300 220 H310 V230 H300 V220 Z M310 220 H320 V230 H310 V220 Z M334.5 220 H340 V230 H330 V224.5 A4.5 4.5 0 0 1 334.5 220 Z M340 220 H345.5 A4.5 4.5 0 0 1 350 224.5 V225.5 A4.5 4.5 0 0 1 345.5 230 H340 V220 Z M404.5 220 H405.5 A4.5 4.5 0 0 1 410 224.5 V225.5 A4.5 4.5 0 0 1 405.5 230 H404.5 A4.5 4.5 0 0 1 400 225.5 V224.5 A4.5 4.5 0 0 1 404.5 220 Z M44.5 230 H45.5 A4.5 4.5 0 0 1 50 234.5 V235.5 A4.5 4.5 0 0 1 45.5 240 H44.5 A4.5 4.5 0 0 1 40 235.5 V234.5 A4.5 4.5 0 0 1 44.5 230 Z M64.5 230 H65.5 A4.5 4.5 0 0 1 70 234.5 V235.5 A4.5 4.5 0 0 1 65.5 240 H64.5 A4.5 4.5 0 0 1 60 235.5 V234.5 A4.5 4.5 0 0 1 64.5 230 Z M130 230 H140 V240 H130 V230 Z M160 230 H170 V235.5 A4.5 4.5 0 0 1 165.5 240 H164.5 A4.5 4.5 0 0 1 160 235.5 V230 Z M184.5 230 H185.5 A4.5 4.5 0 0 1 190 234.5 V240 H180 V234.5 A4.5 4.5 0 0 1 184.5 230 Z M200 230 H210 V240 H200 V230 Z M220 230 H230 V240 H220 V230 Z M230 230 H235.5 A4.5 4.5 0 0 1 240 234.5 V240 H230 V230 Z M254.5 230 H255.5 A4.5 4.5 0 0 1 260 234.5 V240 H250 V234.5 A4.5 4.5 0 0 1 254.5 230 Z M274.5 230 H275.5 A4.5 4.5 0 0 1 280 234.5 V240 H270 V234.5 A4.5 4.5 0 0 1 274.5 230 Z M290 230 H300 V240 H294.5 A4.5 4.5 0 0 1 290 235.5 V230 Z M300 230 H310 V240 H300 V230 Z M310 230 H320 V240 H310 V230 Z M330 230 H340 V240 H330 V230 Z M374.5 230 H375.5 A4.5 4.5 0 0 1 380 234.5 V235.5 A4.5 4.5 0 0 1 375.5 240 H374.5 A4.5 4.5 0 0 1 370 235.5 V234.5 A4.5 4.5 0 0 1 374.5 230 Z M394.5 230 H395.5 A4.5 4.5 0 0 1 400 234.5 V235.5 A4.5 4.5 0 0 1 395.5 240 H394.5 A4.5 4.5 0 0 1 390 235.5 V234.5 A4.5 4.5 0 0 1 394.5 230 Z M54.5 240 H55.5 A4.5 4.5 0 0 1 60 244.5 V245.5 A4.5 4.5 0 0 1 55.5 250 H54.5 A4.5 4.5 0 0 1 50 245.5 V244.5 A4.5 4.5 0 0 1 54.5 240 Z M74.5 240 H75.5 A4.5 4.5 0 0 1 80 244.5 V245.5 A4.5 4.5 0 0 1 75.5 250 H74.5 A4.5 4.5 0 0 1 70 245.5 V244.5 A4.5 4.5 0 0 1 74.5 240 Z M104.5 240 H110 V250 H104.5 A4.5 4.5 0 0 1 100 245.5 V244.5 A4.5 4.5 0 0 1 104.5 240 Z M110 240 H115.5 A4.5 4.5 0 0 1 120 244.5 V245.5 A4.5 4.5 0 0 1 115.5 250 H110 V240 Z M130 240 H140 V250 H130 V240 Z M174.5 240 H180 V250 H170 V244.5 A4.5 4.5 0 0 1 174.5 240 Z M180 240 H190 V245.5 A4.5 4.5 0 0 1 185.5 250 H180 V240 Z M200 240 H210 V245.5 A4.5 4.5 0 0 1 205.5 250 H204.5 A4.5 4.5 0 0 1 200 245.5 V240 Z M220 240 H230 V250 H220 V240 Z M230 240 H240 V250 H230 V240 Z M240 240 H250 V250 H240 V240 Z M250 240 H260 V250 H250 V240 Z M270 240 H280 V250 H270 V240 Z M280 240 H285.5 A4.5 4.5 0 0 1 290 244.5 V245.5 A4.5 4.5 0 0 1 285.5 250 H280 V240 Z M300 240 H310 V250 H300 V240 Z M310 240 H320 V250 H310 V240 Z M320 240 H330 V250 H320 V240 Z M330 240 H340 V250 H330 V240 Z M340 240 H345.5 A4.5 4.5 0 0 1 350 244.5 V245.5 A4.5 4.5 0 0 1 345.5 250 H340 V240 Z M364.5 240 H365.5 A4.5 4.5 0 0 1 370 244.5 V250 H360 V244.5 A4.5 4.5 0 0 1 364.5 240 Z M404.5 240 H405.5 A4.5 4.5 0 0 1 410 244.5 V245.5 A4.5 4.5 0 0 1 405.5 250 H404.5 A4.5 4.5 0 0 1 400 245.5 V244.5 A4.5 4.5 0 0 1 404.5 240 Z M44.5 250 H45.5 A4.5 4.5 0 0 1 50 254.5 V255.5 A4.5 4.5 0 0 1 45.5 260 H44.5 A4.5 4.5 0 0 1 40 255.5 V254.5 A4.5 4.5 0 0 1 44.5 250 Z M84.5 250 H85.5 A4.5 4.5 0 0 1 90 254.5 V260 H80 V254.5 A4.5 4.5 0 0 1 84.5 250 Z M124.5 250 H130 V260 H124.5 A4.5 4.5 0 0 1 120 255.5 V254.5 A4.5 4.5 0 0 1 124.5 250 Z M130 250 H140 V260 H130 V250 Z M164.5 250 H170 V260 H164.5 A4.5 4.5 0 0 1 160 255.5 V254.5 A4.5 4.5 0 0 1 164.5 250 Z M170 250 H180 V260 H170 V250 Z M194.5 250 H195.5 A4.5 4.5 0 0 1 200 254.5 V260 H190 V254.5 A4.5 4.5 0 0 1 194.5 250 Z M220 250 H230 V260 H220 V250 Z M240 250 H250 V260 H244.5 A4.5 4.5 0 0 1 240 255.5 V250 Z M250 250 H260 V260 H250 V250 Z M260 250 H270 V260 H260 V250 Z M270 250 H280 V255.5 A4.5 4.5 0 0 1 275.5 260 H270 V250 Z M294.5 250 H300 V260 H290 V254.5 A4.5 4.5 0 0 1 294.5 250 Z M300 250 H310 V260 H300 V250 Z M310 250 H320 V260 H310 V250 Z M320 250 H330 V255.5 A4.5 4.5 0 0 1 325.5 260 H320 V250 Z M354.5 250 H360 V260 H354.5 A4.5 4.5 0 0 1 350 255.5 V254.5 A4.5 4.5 0 0 1 354.5 250 Z M360 250 H370 V260 H360 V250 Z M54.5 260 H55.5 A4.5 4.5 0 0 1 60 264.5 V265.5 A4.5 4.5 0 0 1 55.5 270 H54.5 A4.5 4.5 0 0 1 50 265.5 V264.5 A4.5 4.5 0 0 1 54.5 260 Z M74.5 260 H80 V270 H74.5 A4.5 4.5 0 0 1 70 265.5 V264.5 A4.5 4.5 0 0 1 74.5 260 Z M80 260 H90 V265.5 A4.5 4.5 0 0 1 85.5 270 H80 V260 Z M104.5 260 H110 V270 H104.5 A4.5 4.5 0 0 1 100 265.5 V264.5 A4.5 4.5 0 0 1 104.5 260 Z M110 260 H115.5 A4.5 4.5 0 0 1 120 264.5 V270 H110 V260 Z M130 260 H140 V270 H134.5 A4.5 4.5 0 0 1 130 265.5 V260 Z M140 260 H150 V270 H140 V260 Z M150 260 H155.5 A4.5 4.5 0 0 1 160 264.5 V265.5 A4.5 4.5 0 0 1 155.5 270 H150 V260 Z M170 260 H180 V270 H170 V260 Z M190 260 H200 V265.5 A4.5 4.5 0 0 1 195.5 270 H194.5 A4.5 4.5 0 0 1 190 265.5 V260 Z M220 260 H230 V265.5 A4.5 4.5 0 0 1 225.5 270 H224.5 A4.5 4.5 0 0 1 220 265.5 V260 Z M290 260 H300 V270 H290 V260 Z M310 260 H320 V270 H310 V260 Z M360 260 H370 V270 H364.5 A4.5 4.5 0 0 1 360 265.5 V260 Z M370 260 H375.5 A4.5 4.5 0 0 1 380 264.5 V270 H370 V260 Z M404.5 260 H405.5 A4.5 4.5 0 0 1 410 264.5 V270 H400 V264.5 A4.5 4.5 0 0 1 404.5 260 Z M110 270 H120 V275.5 A4.5 4.5 0 0 1 115.5 280 H114.5 A4.5 4.5 0 0 1 110 275.5 V270 Z M140 270 H150 V275.5 A4.5 4.5 0 0 1 145.5 280 H144.5 A4.5 4.5 0 0 1 140 275.5 V270 Z M164.5 270 H170 V280 H160 V274.5 A4.5 4.5 0 0 1 164.5 270 Z M170 270 H180 V280 H170 V270 Z M180 270 H185.5 A4.5 4.5 0 0 1 190 274.5 V275.5 A4.5 4.5 0 0 1 185.5 280 H180 V270 Z M204.5 270 H205.5 A4.5 4.5 0 0 1 210 274.5 V275.5 A4.5 4.5 0 0 1 205.5 280 H204.5 A4.5 4.5 0 0 1 200 275.5 V274.5 A4.5 4.5 0 0 1 204.5 270 Z M274.5 270 H280 V280 H274.5 A4.5 4.5 0 0 1 270 275.5 V274.5 A4.5 4.5 0 0 1 274.5 270 Z M280 270 H290 V280 H280 V270 Z M290 270 H300 V280 H290 V270 Z M310 270 H320 V280 H314.5 A4.5 4.5 0 0 1 310 275.5 V270 Z M320 270 H330 V280 H320 V270 Z M330 270 H335.5 A4.5 4.5 0 0 1 340 274.5 V275.5 A4.5 4.5 0 0 1 335.5 280 H330 V270 Z M354.5 270 H355.5 A4.5 4.5 0 0 1 360 274.5 V280 H350 V274.5 A4.5 4.5 0 0 1 354.5 270 Z M370 270 H380 V280 H370 V270 Z M380 270 H390 V280 H380 V270 Z M390 270 H400 V280 H390 V270 Z M400 270 H410 V280 H400 V270 Z M64.5 280 H70 V290 H64.5 A4.5 4.5 0 0 1 60 285.5 V284.5 A4.5 4.5 0 0 1 64.5 280 Z M70 280 H75.5 A4.5 4.5 0 0 1 80 284.5 V290 H70 V280 Z M104.5 280 H105.5 A4.5 4.5 0 0 1 110 284.5 V285.5 A4.5 4.5 0 0 1 105.5 290 H104.5 A4.5 4.5 0 0 1 100 285.5 V284.5 A4.5 4.5 0 0 1 104.5 280 Z M124.5 280 H130 V290 H124.5 A4.5 4.5 0 0 1 120 285.5 V284.5 A4.5 4.5 0 0 1 124.5 280 Z M130 280 H135.5 A4.5 4.5 0 0 1 140 284.5 V290 H130 V280 Z M160 280 H170 V290 H164.5 A4.5 4.5 0 0 1 160 285.5 V280 Z M170 280 H180 V285.5 A4.5 4.5 0 0 1 175.5 290 H170 V280 Z M214.5 280 H215.5 A4.5 4.5 0 0 1 220 284.5 V285.5 A4.5 4.5 0 0 1 215.5 290 H214.5 A4.5 4.5 0 0 1 210 285.5 V284.5 A4.5 4.5 0 0 1 214.5 280 Z M234.5 280 H240 V290 H230 V284.5 A4.5 4.5 0 0 1 234.5 280 Z M240 280 H245.5 A4.5 4.5 0 0 1 250 284.5 V290 H240 V280 Z M264.5 280 H265.5 A4.5 4.5 0 0 1 270 284.5 V290 H260 V284.5 A4.5 4.5 0 0 1 264.5 280 Z M280 280 H290 V290 H284.5 A4.5 4.5 0 0 1 280 285.5 V280 Z M290 280 H300 V290 H290 V280 Z M350 280 H360 V290 H354.5 A4.5 4.5 0 0 1 350 285.5 V280 Z M360 280 H370 V290 H360 V280 Z M370 280 H380 V285.5 A4.5 4.5 0 0 1 375.5 290 H370 V280 Z M390 280 H400 V290 H394.5 A4.5 4.5 0 0 1 390 285.5 V280 Z M400 280 H410 V285.5 A4.5 4.5 0 0 1 405.5 290 H400 V280 Z M44.5 290 H50 V300 H40 V294.5 A4.5 4.5 0 0 1 44.5 290 Z M50 290 H55.5 A4.5 4.5 0 0 1 60 294.5 V300 H50 V290 Z M70 290 H80 V300 H70 V290 Z M80 290 H85.5 A4.5 4.5 0 0 1 90 294.5 V295.5 A4.5 4.5 0 0 1 85.5 300 H80 V290 Z M114.5 290 H115.5 A4.5 4.5 0 0 1 120 294.5 V300 H110 V294.5 A4.5 4.5 0 0 1 114.5 290 Z M130 290 H140 V300 H130 V290 Z M140 290 H145.5 A4.5 4.5 0 0 1 150 294.5 V300 H140 V290 Z M194.5 290 H195.5 A4.5 4.5 0 0 1 200 294.5 V300 H190 V294.5 A4.5 4.5 0 0 1 194.5 290 Z M230 290 H240 V300 H230 V290 Z M240 290 H250 V295.5 A4.5 4.5 0 0 1 245.5 300 H240 V290 Z M260 290 H270 V295.5 A4.5 4.5 0 0 1 265.5 300 H264.5 A4.5 4.5 0 0 1 260 295.5 V290 Z M290 290 H300 V300 H290 V290 Z M300 290 H305.5 A4.5 4.5 0 0 1 310 294.5 V300 H300 V290 Z M344.5 290 H345.5 A4.5 4.5 0 0 1 350 294.5 V300 H340 V294.5 A4.5 4.5 0 0 1 344.5 290 Z M40 300 H50 V310 H40 V300 Z M50 300 H60 V310 H50 V300 Z M60 300 H70 V310 H60 V300 Z M70 300 H80 V310 H70 V300 Z M104.5 300 H110 V310 H104.5 A4.5 4.5 0 0 1 100 305.5 V304.5 A4.5 4.5 0 0 1 104.5 300 Z M110 300 H120 V305.5 A4.5 4.5 0 0 1 115.5 310 H110 V300 Z M130 300 H140 V310 H134.5 A4.5 4.5 0 0 1 130 305.5 V300 Z M140 300 H150 V310 H140 V300 Z M150 300 H160 V310 H150 V300 Z M160 300 H170 V310 H160 V300 Z M170 300 H180 V310 H170 V300 Z M180 300 H190 V310 H180 V300 Z M190 300 H200 V305.5 A4.5 4.5 0 0 1 195.5 310 H190 V300 Z M214.5 300 H215.5 A4.5 4.5 0 0 1 220 304.5 V305.5 A4.5 4.5 0 0 1 215.5 310 H214.5 A4.5 4.5 0 0 1 210 305.5 V304.5 A4.5 4.5 0 0 1 214.5 300 Z M230 300 H240 V305.5 A4.5 4.5 0 0 1 235.5 310 H234.5 A4.5 4.5 0 0 1 230 305.5 V300 Z M274.5 300 H280 V310 H270 V304.5 A4.5 4.5 0 0 1 274.5 300 Z M280 300 H290 V310 H280 V300 Z M290 300 H300 V310 H290 V300 Z M300 300 H310 V310 H300 V300 Z M310 300 H315.5 A4.5 4.5 0 0 1 320 304.5 V305.5 A4.5 4.5 0 0 1 315.5 310 H310 V300 Z M340 300 H350 V310 H344.5 A4.5 4.5 0 0 1 340 305.5 V300 Z M350 300 H360 V310 H350 V300 Z M360 300 H370 V310 H360 V300 Z M370 300 H375.5 A4.5 4.5 0 0 1 380 304.5 V305.5 A4.5 4.5 0 0 1 375.5 310 H370 V300 Z M404.5 300 H405.5 A4.5 4.5 0 0 1 410 304.5 V310 H400 V304.5 A4.5 4.5 0 0 1 404.5 300 Z M40 310 H50 V320 H40 V310 Z M60 310 H70 V320 H64.5 A4.5 4.5 0 0 1 60 315.5 V310 Z M70 310 H80 V320 H70 V310 Z M80 310 H90 V320 H80 V310 Z M90 310 H95.5 A4.5 4.5 0 0 1 100 314.5 V315.5 A4.5 4.5 0 0 1 95.5 320 H90 V310 Z M140 310 H150 V320 H144.5 A4.5 4.5 0 0 1 140 315.5 V310 Z M150 310 H160 V320 H150 V310 Z M160 310 H170 V315.5 A4.5 4.5 0 0 1 165.5 320 H160 V310 Z M204.5 310 H205.5 A4.5 4.5 0 0 1 210 314.5 V320 H200 V314.5 A4.5 4.5 0 0 1 204.5 310 Z M224.5 310 H225.5 A4.5 4.5 0 0 1 230 314.5 V315.5 A4.5 4.5 0 0 1 225.5 320 H224.5 A4.5 4.5 0 0 1 220 315.5 V314.5 A4.5 4.5 0 0 1 224.5 310 Z M264.5 310 H270 V320 H264.5 A4.5 4.5 0 0 1 260 315.5 V314.5 A4.5 4.5 0 0 1 264.5 310 Z M270 310 H280 V315.5 A4.5 4.5 0 0 1 275.5 320 H270 V310 Z M324.5 310 H330 V320 H320 V314.5 A4.5 4.5 0 0 1 324.5 310 Z M330 310 H335.5 A4.5 4.5 0 0 1 340 314.5 V320 H330 V310 Z M350 310 H360 V320 H350 V310 Z M384.5 310 H390 V320 H384.5 A4.5 4.5 0 0 1 380 315.5 V314.5 A4.5 4.5 0 0 1 384.5 310 Z M390 310 H400 V320 H390 V310 Z M400 310 H410 V315.5 A4.5 4.5 0 0 1 405.5 320 H400 V310 Z M40 320 H50 V325.5 A4.5 4.5 0 0 1 45.5 330 H44.5 A4.5 4.5 0 0 1 40 325.5 V320 Z M70 320 H80 V325.5 A4.5 4.5 0 0 1 75.5 330 H74.5 A4.5 4.5 0 0 1 70 325.5 V320 Z M104.5 320 H110 V330 H104.5 A4.5 4.5 0 0 1 100 325.5 V324.5 A4.5 4.5 0 0 1 104.5 320 Z M110 320 H115.5 A4.5 4.5 0 0 1 120 324.5 V325.5 A4.5 4.5 0 0 1 115.5 330 H110 V320 Z M150 320 H160 V330 H150 V320 Z M184.5 320 H185.5 A4.5 4.5 0 0 1 190 324.5 V325.5 A4.5 4.5 0 0 1 185.5 330 H184.5 A4.5 4.5 0 0 1 180 325.5 V324.5 A4.5 4.5 0 0 1 184.5 320 Z M200 320 H210 V325.5 A4.5 4.5 0 0 1 205.5 330 H204.5 A4.5 4.5 0 0 1 200 325.5 V320 Z M234.5 320 H235.5 A4.5 4.5 0 0 1 240 324.5 V330 H230 V324.5 A4.5 4.5 0 0 1 234.5 320 Z M294.5 320 H295.5 A4.5 4.5 0 0 1 300 324.5 V330 H290 V324.5 A4.5 4.5 0 0 1 294.5 320 Z M314.5 320 H320 V330 H310 V324.5 A4.5 4.5 0 0 1 314.5 320 Z M320 320 H330 V330 H320 V320 Z M330 320 H340 V330 H330 V320 Z M340 320 H350 V330 H340 V320 Z M350 320 H360 V330 H350 V320 Z M360 320 H370 V330 H360 V320 Z M370 320 H375.5 A4.5 4.5 0 0 1 380 324.5 V330 H370 V320 Z M124.5 330 H130 V340 H120 V334.5 A4.5 4.5 0 0 1 124.5 330 Z M130 330 H135.5 A4.5 4.5 0 0 1 140 334.5 V335.5 A4.5 4.5 0 0 1 135.5 340 H130 V330 Z M150 330 H160 V340 H150 V330 Z M160 330 H165.5 A4.5 4.5 0 0 1 170 334.5 V335.5 A4.5 4.5 0 0 1 165.5 340 H160 V330 Z M214.5 330 H220 V340 H214.5 A4.5 4.5 0 0 1 210 335.5 V334.5 A4.5 4.5 0 0 1 214.5 330 Z M220 330 H230 V340 H220 V330 Z M230 330 H240 V340 H230 V330 Z M240 330 H250 V340 H240 V330 Z M250 330 H255.5 A4.5 4.5 0 0 1 260 334.5 V335.5 A4.5 4.5 0 0 1 255.5 340 H250 V330 Z M290 330 H300 V335.5 A4.5 4.5 0 0 1 295.5 340 H294.5 A4.5 4.5 0 0 1 290 335.5 V330 Z M310 330 H320 V340 H314.5 A4.5 4.5 0 0 1 310 335.5 V330 Z M320 330 H330 V340 H320 V330 Z M360 330 H370 V340 H360 V330 Z M370 330 H380 V340 H370 V330 Z M380 330 H385.5 A4.5 4.5 0 0 1 390 334.5 V340 H380 V330 Z M44.5 340 H50 V350 H40 V344.5 A4.5 4.5 0 0 1 44.5 340 Z M50 340 H60 V350 H50 V340 Z M60 340 H70 V350 H60 V340 Z M70 340 H80 V350 H70 V340 Z M80 340 H90 V350 H80 V340 Z M90 340 H100 V350 H90 V340 Z M100 340 H105.5 A4.5 4.5 0 0 1 110 344.5 V350 H100 V340 Z M120 340 H130 V345.5 A4.5 4.5 0 0 1 125.5 350 H124.5 A4.5 4.5 0 0 1 120 345.5 V340 Z M150 340 H160 V350 H150 V340 Z M184.5 340 H190 V350 H184.5 A4.5 4.5 0 0 1 180 345.5 V344.5 A4.5 4.5 0 0 1 184.5 340 Z M190 340 H200 V350 H190 V340 Z M200 340 H205.5 A4.5 4.5 0 0 1 210 344.5 V345.5 A4.5 4.5 0 0 1 205.5 350 H200 V340 Z M240 340 H250 V350 H240 V340 Z M264.5 340 H270 V350 H264.5 A4.5 4.5 0 0 1 260 345.5 V344.5 A4.5 4.5 0 0 1 264.5 340 Z M270 340 H280 V350 H270 V340 Z M280 340 H285.5 A4.5 4.5 0 0 1 290 344.5 V350 H280 V340 Z M320 340 H330 V350 H320 V340 Z M344.5 340 H345.5 A4.5 4.5 0 0 1 350 344.5 V345.5 A4.5 4.5 0 0 1 345.5 350 H344.5 A4.5 4.5 0 0 1 340 345.5 V344.5 A4.5 4.5 0 0 1 344.5 340 Z M360 340 H370 V350 H360 V340 Z M370 340 H380 V350 H370 V340 Z M380 340 H390 V345.5 A4.5 4.5 0 0 1 385.5 350 H380 V340 Z M404.5 340 H405.5 A4.5 4.5 0 0 1 410 344.5 V350 H400 V344.5 A4.5 4.5 0 0 1 404.5 340 Z M40 350 H50 V360 H40 V350 Z M100 350 H110 V360 H100 V350 Z M150 350 H160 V360 H154.5 A4.5 4.5 0 0 1 150 355.5 V350 Z M160 350 H165.5 A4.5 4.5 0 0 1 170 354.5 V355.5 A4.5 4.5 0 0 1 165.5 360 H160 V350 Z M214.5 350 H220 V360 H210 V354.5 A4.5 4.5 0 0 1 214.5 350 Z M220 350 H225.5 A4.5 4.5 0 0 1 230 354.5 V355.5 A4.5 4.5 0 0 1 225.5 360 H220 V350 Z M240 350 H250 V360 H244.5 A4.5 4.5 0 0 1 240 355.5 V350 Z M250 350 H255.5 A4.5 4.5 0 0 1 260 354.5 V360 H250 V350 Z M280 350 H290 V360 H284.5 A4.5 4.5 0 0 1 280 355.5 V350 Z M290 350 H295.5 A4.5 4.5 0 0 1 300 354.5 V355.5 A4.5 4.5 0 0 1 295.5 360 H290 V350 Z M314.5 350 H320 V360 H310 V354.5 A4.5 4.5 0 0 1 314.5 350 Z M320 350 H330 V360 H320 V350 Z M360 350 H370 V360 H360 V350 Z M370 350 H380 V355.5 A4.5 4.5 0 0 1 375.5 360 H370 V350 Z M394.5 350 H400 V360 H394.5 A4.5 4.5 0 0 1 390 355.5 V354.5 A4.5 4.5 0 0 1 394.5 350 Z M400 350 H410 V360 H400 V350 Z M40 360 H50 V370 H40 V360 Z M64.5 360 H70 V370 H60 V364.5 A4.5 4.5 0 0 1 64.5 360 Z M70 360 H80 V370 H70 V360 Z M80 360 H85.5 A4.5 4.5 0 0 1 90 364.5 V370 H80 V360 Z M100 360 H110 V370 H100 V360 Z M124.5 360 H130 V370 H120 V364.5 A4.5 4.5 0 0 1 124.5 360 Z M130 360 H140 V370 H130 V360 Z M140 360 H145.5 A4.5 4.5 0 0 1 150 364.5 V365.5 A4.5 4.5 0 0 1 145.5 370 H140 V360 Z M184.5 360 H190 V370 H180 V364.5 A4.5 4.5 0 0 1 184.5 360 Z M190 360 H195.5 A4.5 4.5 0 0 1 200 364.5 V370 H190 V360 Z M210 360 H220 V370 H210 V360 Z M234.5 360 H235.5 A4.5 4.5 0 0 1 240 364.5 V365.5 A4.5 4.5 0 0 1 235.5 370 H234.5 A4.5 4.5 0 0 1 230 365.5 V364.5 A4.5 4.5 0 0 1 234.5 360 Z M250 360 H260 V370 H250 V360 Z M260 360 H265.5 A4.5 4.5 0 0 1 270 364.5 V365.5 A4.5 4.5 0 0 1 265.5 370 H260 V360 Z M304.5 360 H310 V370 H300 V364.5 A4.5 4.5 0 0 1 304.5 360 Z M310 360 H320 V370 H310 V360 Z M320 360 H330 V370 H320 V360 Z M330 360 H340 V370 H330 V360 Z M340 360 H350 V370 H340 V360 Z M350 360 H360 V370 H350 V360 Z M360 360 H370 V365.5 A4.5 4.5 0 0 1 365.5 370 H360 V360 Z M400 360 H410 V365.5 A4.5 4.5 0 0 1 405.5 370 H404.5 A4.5 4.5 0 0 1 400 365.5 V360 Z M40 370 H50 V380 H40 V370 Z M60 370 H70 V380 H60 V370 Z M70 370 H80 V380 H70 V370 Z M80 370 H90 V380 H80 V370 Z M100 370 H110 V380 H100 V370 Z M120 370 H130 V375.5 A4.5 4.5 0 0 1 125.5 380 H124.5 A4.5 4.5 0 0 1 120 375.5 V370 Z M154.5 370 H160 V380 H150 V374.5 A4.5 4.5 0 0 1 154.5 370 Z M160 370 H170 V380 H160 V370 Z M170 370 H180 V380 H170 V370 Z M180 370 H190 V380 H180 V370 Z M190 370 H200 V380 H190 V370 Z M210 370 H220 V380 H210 V370 Z M250 370 H260 V375.5 A4.5 4.5 0 0 1 255.5 380 H254.5 A4.5 4.5 0 0 1 250 375.5 V370 Z M284.5 370 H285.5 A4.5 4.5 0 0 1 290 374.5 V375.5 A4.5 4.5 0 0 1 285.5 380 H284.5 A4.5 4.5 0 0 1 280 375.5 V374.5 A4.5 4.5 0 0 1 284.5 370 Z M300 370 H310 V380 H304.5 A4.5 4.5 0 0 1 300 375.5 V370 Z M310 370 H320 V380 H310 V370 Z M340 370 H350 V380 H344.5 A4.5 4.5 0 0 1 340 375.5 V370 Z M350 370 H360 V375.5 A4.5 4.5 0 0 1 355.5 380 H350 V370 Z M384.5 370 H385.5 A4.5 4.5 0 0 1 390 374.5 V380 H380 V374.5 A4.5 4.5 0 0 1 384.5 370 Z M40 380 H50 V390 H40 V380 Z M60 380 H70 V390 H64.5 A4.5 4.5 0 0 1 60 385.5 V380 Z M70 380 H80 V390 H70 V380 Z M80 380 H90 V385.5 A4.5 4.5 0 0 1 85.5 390 H80 V380 Z M100 380 H110 V390 H100 V380 Z M134.5 380 H140 V390 H134.5 A4.5 4.5 0 0 1 130 385.5 V384.5 A4.5 4.5 0 0 1 134.5 380 Z M140 380 H150 V390 H140 V380 Z M150 380 H160 V385.5 A4.5 4.5 0 0 1 155.5 390 H150 V380 Z M170 380 H180 V390 H170 V380 Z M190 380 H200 V390 H190 V380 Z M200 380 H210 V390 H200 V380 Z M210 380 H220 V390 H210 V380 Z M220 380 H225.5 A4.5 4.5 0 0 1 230 384.5 V385.5 A4.5 4.5 0 0 1 225.5 390 H220 V380 Z M244.5 380 H245.5 A4.5 4.5 0 0 1 250 384.5 V390 H240 V384.5 A4.5 4.5 0 0 1 244.5 380 Z M264.5 380 H270 V390 H264.5 A4.5 4.5 0 0 1 260 385.5 V384.5 A4.5 4.5 0 0 1 264.5 380 Z M270 380 H275.5 A4.5 4.5 0 0 1 280 384.5 V390 H270 V380 Z M310 380 H320 V390 H310 V380 Z M320 380 H325.5 A4.5 4.5 0 0 1 330 384.5 V385.5 A4.5 4.5 0 0 1 325.5 390 H320 V380 Z M364.5 380 H370 V390 H364.5 A4.5 4.5 0 0 1 360 385.5 V384.5 A4.5 4.5 0 0 1 364.5 380 Z M370 380 H380 V390 H370 V380 Z M380 380 H390 V390 H380 V380 Z M390 380 H400 V390 H390 V380 Z M400 380 H405.5 A4.5 4.5 0 0 1 410 384.5 V390 H400 V380 Z M40 390 H50 V400 H40 V390 Z M100 390 H110 V400 H100 V390 Z M164.5 390 H170 V400 H160 V394.5 A4.5 4.5 0 0 1 164.5 390 Z M170 390 H180 V400 H170 V390 Z M180 390 H190 V400 H180 V390 Z M190 390 H200 V400 H190 V390 Z M200 390 H210 V400 H200 V390 Z M240 390 H250 V400 H240 V390 Z M270 390 H280 V400 H270 V390 Z M280 390 H285.5 A4.5 4.5 0 0 1 290 394.5 V395.5 A4.5 4.5 0 0 1 285.5 400 H280 V390 Z M304.5 390 H310 V400 H304.5 A4.5 4.5 0 0 1 300 395.5 V394.5 A4.5 4.5 0 0 1 304.5 390 Z M310 390 H320 V395.5 A4.5 4.5 0 0 1 315.5 400 H310 V390 Z M334.5 390 H340 V400 H330 V394.5 A4.5 4.5 0 0 1 334.5 390 Z M340 390 H350 V400 H340 V390 Z M350 390 H355.5 A4.5 4.5 0 0 1 360 394.5 V400 H350 V390 Z M370 390 H380 V400 H370 V390 Z M380 390 H390 V400 H380 V390 Z M390 390 H400 V400 H390 V390 Z M400 390 H410 V400 H400 V390 Z M40 400 H50 V410 H44.5 A4.5 4.5 0 0 1 40 405.5 V400 Z M50 400 H60 V410 H50 V400 Z M60 400 H70 V410 H60 V400 Z M70 400 H80 V410 H70 V400 Z M80 400 H90 V410 H80 V400 Z M90 400 H100 V410 H90 V400 Z M100 400 H110 V405.5 A4.5 4.5 0 0 1 105.5 410 H100 V400 Z M134.5 400 H140 V410 H134.5 A4.5 4.5 0 0 1 130 405.5 V404.5 A4.5 4.5 0 0 1 134.5 400 Z M140 400 H150 V410 H140 V400 Z M150 400 H160 V410 H150 V400 Z M160 400 H170 V405.5 A4.5 4.5 0 0 1 165.5 410 H160 V400 Z M180 400 H190 V405.5 A4.5 4.5 0 0 1 185.5 410 H184.5 A4.5 4.5 0 0 1 180 405.5 V400 Z M200 400 H210 V410 H204.5 A4.5 4.5 0 0 1 200 405.5 V400 Z M210 400 H215.5 A4.5 4.5 0 0 1 220 404.5 V405.5 A4.5 4.5 0 0 1 215.5 410 H210 V400 Z M234.5 400 H240 V410 H234.5 A4.5 4.5 0 0 1 230 405.5 V404.5 A4.5 4.5 0 0 1 234.5 400 Z M240 400 H250 V405.5 A4.5 4.5 0 0 1 245.5 410 H240 V400 Z M264.5 400 H270 V410 H264.5 A4.5 4.5 0 0 1 260 405.5 V404.5 A4.5 4.5 0 0 1 264.5 400 Z M270 400 H280 V405.5 A4.5 4.5 0 0 1 275.5 410 H270 V400 Z M324.5 400 H330 V410 H324.5 A4.5 4.5 0 0 1 320 405.5 V404.5 A4.5 4.5 0 0 1 324.5 400 Z M330 400 H340 V410 H330 V400 Z M340 400 H350 V410 H340 V400 Z M350 400 H360 V405.5 A4.5 4.5 0 0 1 355.5 410 H350 V400 Z M370 400 H380 V405.5 A4.5 4.5 0 0 1 375.5 410 H374.5 A4.5 4.5 0 0 1 370 405.5 V400 Z M400 400 H410 V405.5 A4.5 4.5 0 0 1 405.5 410 H404.5 A4.5 4.5 0 0 1 400 405.5 V400 Z" fill="#000000"/></svg>