<svg width="110" height="32" viewBox="0 0 110 32" fill="none" xmlns="http://www.w3.org/2000/svg">
<path d="M100.974 27.717C98.9869 27.717 97.5631 27.0247 96.073 25.6731C95.5764 25.2446 95.3446 24.816 94.9141 24.8819C94.0532 24.9479 95.3777 27.6181 93.7221 27.684C92.4307 27.717 92.3645 26.9258 91.6692 24.2226C91.3712 22.9699 91.1725 22.1128 91.1725 21.4865C91.1725 20.3657 92.1658 20.0031 93.3579 20.0031C94.3512 20.0031 94.6161 20.4646 95.6095 21.7502C97.2982 23.9919 98.8875 25.0468 100.742 25.0468C102.331 25.0468 103.391 24.1567 103.391 22.4425C103.391 20.6294 102.166 19.2449 98.5233 17.1351C94.1194 14.5308 91.7354 12.9485 91.7354 9.02557C91.7354 5.36641 94.4174 3.0918 97.8942 3.0918C99.8478 3.0918 101.04 3.81704 102.099 5.10269C102.596 5.5642 102.695 5.762 103.093 5.762C103.788 5.762 102.729 3.22366 104.219 3.15773C105.245 3.0918 105.311 3.61924 106.172 6.02572C106.603 7.31137 106.967 8.36626 106.967 9.0915C106.967 9.75081 106.536 10.1794 106.007 10.3772C104.815 10.7727 104.053 10.3772 102.828 8.89371C101.238 6.84985 99.8478 5.79496 98.0266 5.79496C96.3379 5.82793 95.3777 6.71799 95.3777 8.26737C95.3777 9.9486 96.7022 11.0035 100.046 12.9485C105.079 15.8164 107 17.6625 107 21.5524C107 25.4094 104.483 27.717 100.974 27.717Z" fill="#231906"/>
<path d="M78.5427 27.5523C74.5361 27.5523 74.1057 27.3545 74.1057 25.8051C74.1057 24.7832 74.6686 24.5525 75.5626 24.1898C76.3242 23.8272 76.5891 23.6624 76.5891 21.0581V8.8939C76.5891 7.67418 76.5228 7.24563 75.4633 6.9819C74.6355 6.75114 73.9401 6.55335 73.9401 5.23474C73.9401 3.68536 74.6024 3.42164 77.0195 3.42164L83.7743 3.38867C88.9398 3.38867 91.3569 5.1688 91.3901 10.2784C91.4232 15.3551 89.0722 17.8935 84.0723 17.8605C80.2314 17.8275 80.4632 17.6627 80.4632 20.4977C80.43 23.4646 80.3307 23.7613 81.7545 24.1239C83.3108 24.4536 83.6419 24.7832 83.6419 25.8051C83.6419 27.3545 82.9134 27.5523 78.5427 27.5523ZM80.3969 10.2455C80.3969 15.3551 79.8009 14.9925 83.9399 14.9595C86.4895 14.9266 87.3835 14.1024 87.3504 11.1685C87.3835 7.64121 85.8273 6.35556 83.0459 6.35556C79.834 6.35556 80.3969 6.1248 80.3969 10.2455Z" fill="#231906"/>
<path d="M67.9717 27.717C65.985 27.717 64.5612 27.0247 63.0711 25.6731C62.5745 25.2446 62.3427 24.816 61.9122 24.8819C61.0513 24.9479 62.3758 27.6181 60.7202 27.684C59.4288 27.717 59.3626 26.9258 58.6673 24.2226C58.3693 22.9699 58.1706 22.1128 58.1706 21.4865C58.1706 20.3657 59.1639 20.0031 60.356 20.0031C61.3493 20.0031 61.6142 20.4646 62.6076 21.7502C64.2963 23.9919 65.8857 25.0468 67.7399 25.0468C69.3293 25.0468 70.3889 24.1567 70.3889 22.4425C70.3889 20.6294 69.1637 19.2449 65.5214 17.1351C61.1176 14.5308 58.7335 12.9485 58.7335 9.02557C58.7335 5.36641 61.4156 3.0918 64.8923 3.0918C66.8459 3.0918 68.0379 3.81704 69.0975 5.10269C69.5942 5.5642 69.6935 5.762 70.0909 5.762C70.7862 5.762 69.7266 3.22366 71.2167 3.15773C72.2431 3.0918 72.3093 3.61924 73.1703 6.02572C73.6007 7.31137 73.9649 8.36626 73.9649 9.0915C73.9649 9.75081 73.5345 10.1794 73.0047 10.3772C71.8127 10.7727 71.0511 10.3772 69.826 8.89371C68.2366 6.84985 66.8459 5.79496 65.0247 5.79496C63.336 5.82793 62.3758 6.71799 62.3758 8.26737C62.3758 9.9486 63.7003 11.0035 67.0446 12.9485C72.0776 15.8164 73.9981 17.6625 73.9981 21.5524C73.9981 25.4094 71.4816 27.717 67.9717 27.717Z" fill="#231906"/>
<path d="M48.8963 27.9482C46.1149 27.9482 43.8964 27.0582 42.307 25.4429C40.3865 23.432 39.4594 20.1354 39.4594 15.4873C39.4594 11.1359 40.3534 7.54265 42.4726 5.36694C44.0288 3.7846 46.1811 2.89453 48.8632 2.89453C51.4459 2.89453 53.4657 3.71867 54.9557 5.20211C57.108 7.37783 58.0351 11.07 58.0351 15.6521C58.0351 20.3662 57.108 23.5968 55.1875 25.5747C53.6644 27.1571 51.5121 27.9482 48.8963 27.9482ZM43.4328 13.4435C43.4328 17.0697 44.2606 21.2892 45.8169 22.9375C46.8102 23.9924 48.1678 24.5858 49.4923 24.5858C50.6512 24.5858 51.7439 24.1243 52.4392 23.366C53.5319 22.2123 54.0286 20.2343 54.0286 17.4982C54.0286 13.9379 53.2339 9.61947 51.6446 7.93824C50.6843 6.88335 49.393 6.32293 48.0685 6.32293C46.9096 6.32293 45.85 6.71852 45.0222 7.57562C43.9295 8.69644 43.4328 10.7073 43.4328 13.4435Z" fill="#231906"/>
<path d="M36.7895 27.6182C34.0081 27.6182 32.9816 26.3985 32.0214 20.5636C31.4585 17.1352 30.7962 16.4429 28.8426 16.4429C27.0215 16.4429 27.2533 16.5089 27.2533 20.201C27.2533 23.7942 27.187 23.9261 28.4784 24.2557C29.4055 24.6513 29.6373 24.981 29.6042 25.937C29.6042 27.0908 28.5777 27.4534 25.399 27.4534C21.8891 27.4534 21.0282 27.3215 21.0282 25.7062C20.9951 24.8161 21.5249 24.6513 22.5845 24.1568C23.3129 23.8601 23.4454 23.5964 23.4785 21.9482C23.611 18.6186 23.5778 12.0585 23.5116 8.95979C23.4785 7.31152 23.4454 6.9489 22.75 6.65221C21.8229 6.28959 20.9289 6.38848 20.9289 5.26766C20.9289 3.75125 21.6905 3.28974 23.611 3.35567C25.4983 3.4216 29.0082 3.38863 31.5578 3.38863C35.7299 3.38863 38.2795 4.83911 38.2795 9.28944C38.2795 12.2893 36.955 14.1683 34.4385 14.8276C33.8425 15.0254 33.4121 15.0584 33.4121 15.3551C33.4121 15.7177 33.7432 15.6847 34.4716 16.1133C35.4319 16.7396 35.8954 17.8604 36.1935 19.5417C36.8888 23.2997 37.1537 24.0579 38.1139 24.0579C39.2729 24.0579 38.7431 22.7723 39.4384 22.7064C39.902 22.6734 40.0675 23.003 40.0675 23.4975C40.0675 25.9699 39.0411 27.6182 36.7895 27.6182ZM27.2201 10.1465C27.2201 14.1024 26.9221 13.8387 30.4651 13.8057C33.4783 13.8057 34.2067 12.553 34.1736 10.2454C34.1736 7.37745 33.0147 6.15773 30.0015 6.15773C26.6904 6.19069 27.2201 5.894 27.2201 10.1465Z" fill="#231906"/>
<path d="M13.2713 27.7836C10.6224 27.7836 8.43698 26.9595 6.88073 25.3112C4.99335 23.3333 4 20.0368 4 15.1249C4 10.5427 5.05958 7.31211 6.94695 5.33418C8.40387 3.85074 10.3575 3.05957 12.576 3.05957C14.4633 3.05957 15.6885 3.81777 16.5825 5.03749C16.9467 5.49901 17.0792 5.72977 17.4103 5.72977C18.1056 5.72977 17.0461 3.2244 18.7679 3.2244C19.6288 3.2244 19.7612 3.9826 20.5228 6.91652C21.0195 8.69665 21.2513 9.52079 21.2513 10.279C21.2513 11.3669 20.7877 11.8613 19.8937 12.0262C18.2712 12.3888 17.7745 11.5646 16.5494 9.48782C15.3574 7.21321 14.1322 6.38908 12.5097 6.38908C11.3177 6.38908 10.1919 6.85059 9.46345 7.6088C8.43698 8.76259 7.97342 10.7075 7.97342 13.5426C7.97342 17.2347 8.66877 20.4653 10.3906 22.2454C11.4502 23.3003 12.8409 23.8607 14.662 23.8607C16.2845 23.8607 17.609 23.3003 18.6685 22.0806C19.2977 21.685 19.7612 21.0916 20.2248 21.4213C20.6884 21.718 20.5559 22.3443 20.291 23.0696C19.3639 25.7727 17.5758 27.7836 13.2713 27.7836Z" fill="#231906"/>
</svg>
